<svg id="Шар_1" data-name="Шар 1" xmlns="http://www.w3.org/2000/svg" viewBox="0 0 2000 2000"><defs><style>.cls-1{fill:#f1e7ff;}.cls-2{fill:#8127fb;}</style></defs><path class="cls-1" d="M1667.84,1234.5c-.65-1.42-1.32-2.83-2-4.23-23-47.8-59.64-89.53-72.81-140.92C1573.46,1013,1609.5,935,1637.3,861.17c62.48-165.84-7.38-320.19-186.49-362.45-68.56-16.18-140.94-10-208-33.5-56.86-20-104.88-59.74-161-81.69C947.36,331,791,391.75,685.65,490.43c-27.56,25.82-53.29,54.54-86.31,72.86-82.79,46-193.53,25.25-260.35,103.18-28.11,32.79-44.34,74.14-55.62,115.83a613.59,613.59,0,0,0-14.05,253.37c12.73,82.27,60.66,129.41,121.08,178.84,61.27,50.11,108.81,117.1,135.33,191.71,13,36.65,21.74,76.17,46.14,106.47,39.36,48.88,109.62,60.9,172,54.4s122.81-27.77,185.45-31.46c184.62-10.88,360.54,130.91,541.42,92.33,83.08-17.72,156.75-75.18,194.16-151.45C1701.65,1401.64,1702.66,1310.23,1667.84,1234.5Z"/><path class="cls-2" d="M697.74,1040.14q-126.66,0-253.32,0c-41.88,0-66.52-24.41-66.53-65.92q0-235.14,0-470.27c0-41,24.65-65.88,65.28-65.89q255.83-.06,511.65,0c40.74,0,65.27,24.79,65.28,65.89q.07,235.13,0,470.26c0,41.48-24.7,65.91-66.54,65.93Q825.66,1040.18,697.74,1040.14Zm1.26-562q-126.69,0-253.37,0c-21.36,0-27.6,6.24-27.6,27.59q0,233.29,0,466.6c0,21.35,6.26,27.62,27.58,27.62q253.36,0,506.74,0c21.33,0,27.62-6.29,27.62-27.6q0-233.31,0-466.61c0-21.33-6.27-27.59-27.6-27.6Q825.68,478.15,699,478.17Z"/><path class="cls-2" d="M1622.23,719q0,156.18,0,312.34c0,23-5.85,28.84-28.88,28.84H1129.23c-23,0-28.82-5.81-28.82-28.88q0-312.33,0-624.67c0-23,5.78-28.82,28.85-28.82h464.11c23,0,28.85,5.82,28.85,28.86Q1622.24,562.86,1622.23,719ZM1581.5,418.67H1141.35v600.48H1581.5Z"/><path class="cls-2" d="M1301.71,1120.42q126.64,0,253.31,0c42.76,0,67.18,24.14,67.19,66.49q.06,184.35,0,368.68c0,42.34-24.47,66.56-67.16,66.56q-253.93,0-507.87,0c-43.21,0-67.19-24.2-67.19-67.77q0-183.09,0-366.17c0-44.15,23.87-67.79,68.41-67.8Zm-.62,40.14q-126.69,0-253.37,0c-21.34,0-27.59,6.24-27.59,27.59q0,183.14,0,366.26c0,21.34,6.27,27.6,27.6,27.6q253.37,0,506.74,0c21.32,0,27.6-6.29,27.61-27.61q0-183.12,0-366.26c0-21.31-6.28-27.58-27.62-27.58Q1427.77,1160.54,1301.09,1160.56Z"/><path class="cls-2" d="M438.09,1532.5c0-22.16.27-44.32-.23-66.46-.1-4.47-1.94-9.93-4.92-13.15-84.33-90.9-70.16-213.69,29.9-289.53,66.66-50.52,143.22-68.12,225.62-61.61,66.65,5.27,127.32,27.1,178.38,71.34,47.92,41.51,76.19,93.19,72.49,158.08-3.56,62.56-35.49,110.58-84.23,147.49-66.7,50.51-143.16,68.14-225.55,61.74-20.28-1.58-40.22-7.1-60.45-9.81-4.8-.65-11.6,1.19-15,4.47-26.13,25.27-51.72,51.12-77.34,76.93-7.5,7.56-15.29,13.23-26.52,8.28-10.5-4.63-12.38-13.5-12.24-23.82C438.28,1575.14,438.09,1553.81,438.09,1532.5Zm40.14,21.24c21.27-21.33,40.3-40,58.82-59.15,8.2-8.49,16.77-10.39,28.25-7.6,21.84,5.31,43.85,11.32,66.12,13.21,73.68,6.24,142.35-9,201.81-55,39-30.17,64.7-69,66.17-119.89,1.57-54.1-24.56-95.16-65.36-127.83-43.1-34.52-93.4-51.37-147.83-55.73-73.28-5.87-141.55,9.08-200.88,54.41-83.32,63.65-89.72,160.62-16.95,235.62,5.43,5.6,9.15,15.18,9.41,23C478.84,1486.55,478.23,1518.29,478.23,1553.74Z"/><path class="cls-2" d="M618.73,747.33c-19.11,19.15-37.06,37.18-55.05,55.17-23.35,23.36-46.57,46.85-70.14,70-9.87,9.68-21.37,9.49-29.81.51-8.05-8.58-7.82-19.36,1.65-28.89q68.53-68.91,137.46-137.44c11.3-11.22,21.34-10.53,33.63,1.7q56,55.74,111.73,111.74c3.24,3.24,6.06,6.89,9.87,11.25,4.06-3.7,7.14-6.29,10-9.12,18.36-18.28,36.56-36.74,55.05-54.9,11-10.82,21.2-11.34,31.8-.94q39.4,38.64,78.05,78c9.35,9.51,9.28,20.5,1,28.87-8.7,8.77-19.82,8.63-29.84-1.16C885.56,854,867.39,835.5,849,817.2c-2.91-2.9-6-5.61-9.95-9.29-20.15,20.21-39.83,40-59.56,59.7-16.33,16.32-24.36,16.28-40.83-.19C699.12,827.83,659.57,788.21,618.73,747.33Z"/><path class="cls-2" d="M779.08,538.41a80.4,80.4,0,0,1,80.43,80.36c0,44.25-36.37,80.33-80.68,80.14-43.68-.19-79.59-36.09-79.79-79.76C698.84,574.81,734.84,538.49,779.08,538.41Zm40.29,80.51a40.1,40.1,0,1,0-40.06,39.84A40.42,40.42,0,0,0,819.37,618.92Z"/><path class="cls-2" d="M1361.35,698.94q-67.06,0-134.11,0c-17.53,0-26.07-6.48-26.32-19.7s8.52-20.4,25.6-20.41q135.36,0,270.72,0c16.41,0,25.42,8.16,24.41,21.57-.91,12-8.94,18.47-23.69,18.51Q1429.65,699,1361.35,698.94Z"/><path class="cls-2" d="M1361.94,839.44c45.54,0,91.08-.1,136.61,0,16.6.06,26.42,11.27,22.44,25.28-3.29,11.57-11.86,14.92-23.08,14.88-51-.17-101.94-.07-152.91-.07H1229.69c-20,0-28.55-5.89-28.77-19.76s8.7-20.36,28.16-20.37Q1295.51,839.43,1361.94,839.44Z"/><path class="cls-2" d="M1321.75,478.17q47,0,94,0c17.13,0,25.87,7,25.68,20.33-.18,12.92-8.66,19.76-25,19.77q-95.23.08-190.47,0c-16.35,0-24.81-6.8-25-19.7-.24-13.3,8.52-20.37,25.6-20.4Q1274.15,478.1,1321.75,478.17Z"/><path class="cls-2" d="M1430.91,618.66c-22.13,0-44.26.12-66.39,0-14.89-.12-23.3-7.72-23.11-20.35.19-12.18,8.34-19.63,22.5-19.68q67.65-.24,135.29,0c14.16,0,22.3,7.51,22.49,19.7.19,12.62-8.23,20.22-23.13,20.33C1476,618.78,1453.46,618.66,1430.91,618.66Z"/><path class="cls-2" d="M1291.61,799.29c-22.55,0-45.1.13-67.64,0-14.86-.12-23.28-7.79-23-20.42.23-12.16,8.38-19.56,22.57-19.61q67.63-.22,135.28,0c14.14,0,22.28,7.57,22.43,19.77.15,12.62-8.26,20.15-23.2,20.26C1335.87,799.41,1313.74,799.29,1291.61,799.29Z"/><path class="cls-2" d="M1271.29,959.83c-16.27,0-32.56.23-48.83-.06-13.69-.24-21.91-8.41-21.54-20.62.36-11.73,8.27-19.24,21.55-19.34q48.83-.34,97.67,0c13,.11,20.92,8.14,20.92,19.95s-7.88,19.68-20.93,20C1303.86,960.09,1287.57,959.83,1271.29,959.83Z"/><path class="cls-2" d="M1240.28,618.59c-6.67,0-13.36.35-20-.08-12-.76-19.5-8.81-19.35-20.21.15-10.89,7.33-19,18.68-19.52,14.15-.6,28.36-.6,42.51,0,11.36.47,18.55,8.6,18.74,19.49.19,11.35-7.34,19.5-19.31,20.25C1254.48,619,1247.37,618.59,1240.28,618.59Z"/><path class="cls-2" d="M1481.27,799.17c-7.09,0-14.21.47-21.25-.11-11.24-.92-18.33-9-18.26-20s7.23-19.16,18.53-19.66c14.15-.62,28.36-.59,42.52,0,11.38.45,18.62,8.49,18.88,19.35.27,11.35-7.23,19.61-19.16,20.39-7.06.46-14.17.08-21.26.08Z"/><path class="cls-2" d="M1200.76,1321.34c0-24.65-.16-49.31,0-74,.3-37.67,34.46-58.05,67.2-39.61q65.46,36.86,130.19,75c31.23,18.44,31.46,58.06.33,76.53Q1333.38,1398,1267.26,1435c-32.09,18-66.13-2.68-66.46-39.67C1200.58,1370.65,1200.76,1346,1200.76,1321.34Zm184-.22L1242,1239v164.42Z"/><path class="cls-2" d="M1462.57,1521.82c-3.1,11.63-8.81,20.12-21.42,19.84-11.86-.26-17.66-8.11-20.32-19.84h-13.55q-148.54,0-297.08,0c-4.59,0-9.31.41-13.75-.49-10.43-2.1-15.82-9.21-15.82-19.6s5.44-17.47,15.87-19.55c4.44-.88,9.16-.47,13.75-.47q147.91,0,295.82,0h14.31c3.32-11.21,8.83-20.42,22-19.87,11.93.5,17.22,8.79,20.14,19.89,12.53,0,25-.22,37.54.06,13.72.31,22,8.42,21.58,20.63-.37,11.74-8.3,18.95-21.59,19.38-6.27.21-12.54,0-18.81,0Z"/><path class="cls-2" d="M488.35,1321.42A30,30,0,1,1,519,1351.13,30.31,30.31,0,0,1,488.35,1321.42Z"/><path class="cls-2" d="M658.28,1291.1a30,30,0,1,1-29.44,30.9A30.29,30.29,0,0,1,658.28,1291.1Z"/><path class="cls-2" d="M799,1291.1a30,30,0,1,1-29.68,30.65A30.27,30.27,0,0,1,799,1291.1Z"/></svg>