<svg id="Шар_1" data-name="Шар 1" xmlns="http://www.w3.org/2000/svg" viewBox="0 0 2000 2000"><defs><style>.cls-1{fill:#f1e7ff;}.cls-2{fill:#8127fb;}</style></defs><path class="cls-1" d="M1719.25,1139.86c4.91-81.6,10.42-160.54.74-243.16-6.55-55.92-18-112.88-48.5-160.23C1639,685.94,1588,650.81,1538.26,617.05c-291-197.72-634.13-419.83-991.58-251.5C397.47,435.82,276.42,572,239.8,734.54c-14.65,65-17.14,132.06-18.27,198.68-2.59,152.43,9.93,323.83,124.22,424.73,67.65,59.73,147.43,78.2,230.33,101.13,86.6,24,157.16,79.47,234.14,123.61,146.24,83.83,318.11,122.22,486.11,108.59,95.58-7.76,191.45-32.76,271.42-85.67s142.65-136,157.94-230.64c11.5-71.14-12-136.21-8.16-205.53Q1718.36,1154.57,1719.25,1139.86Z"/><path class="cls-2" d="M854.13,1316.94c-5.75-18.76-10.57-34.52-15.61-51-1.22,1.14-4.3,3.86-7.2,6.77q-55.1,55-110.22,110a42.6,42.6,0,0,1-14,9.59q-122.52,47.46-245.26,94.32c-33.75,12.86-67-3.82-73.5-37.58a60.84,60.84,0,0,1,3-31.23c31.09-82.77,63-165.24,94.91-247.69,2-5.12,6-9.78,9.94-13.76q80.2-80.6,160.72-160.88c4.39-4.39,8.28-7.67,5.18-15.63C642.58,929.89,640,878.16,648,825.55c.24-1.61.26-3.26.52-6.59H635.23c-41.61,0-83.22.07-124.83,0-60.81-.13-110.11-38.58-121.07-94.3-11.66-59.31,18.2-112.4,76.52-136.07,1.48-.61,2.85-1.52,4.95-2.65-6.87-31.84-7.34-63.78,2.07-95.13,23.87-79.49,76.65-129.68,158.29-143.19,85-14.07,152.32,18.88,199.9,90.65,5.5,8.3,9.58,10.32,19.4,8.27,62.78-13.11,125.91,13.28,162,67.42,4.7,7,10,9.23,17.84,10.45,23.94,3.74,47.87,7.83,71.44,13.32,8.14,1.9,12.62.49,18.14-5.06q109.89-110.34,220.23-220.23c59.17-58.68,150.14-63.31,213.59-11.67,74.37,60.51,79.81,168.94,11.33,238q-108.32,109.31-217.72,217.5c-7.43,7.37-8.86,13.39-6.33,23.51,6.33,25.44,10.78,51.35,16.24,78.3h38.24c0,13.12.16,25.29,0,37.47-.29,17.87,7,31.26,23.58,38.39s31.51,3.22,44-9.5c8.63-8.79,16.82-18,24.42-26.19l86.3,86c-8,7.24-17.37,15.27-26.24,23.8-12.79,12.29-17.32,27.05-10.21,43.81,7.24,17,20.84,24.66,39.27,24.24,11.51-.27,23-.05,35.51-.05v118.68c-12,0-24.16.12-36.35,0-17.89-.23-31.21,7.16-38.25,23.79s-3,31.48,9.74,44c8.78,8.63,17.86,17,26.13,24.78l-85.44,85.43c-7.69-8.18-16-17.3-24.58-26.09-12.42-12.68-27.14-17.14-43.88-9.95-16.47,7.09-24.24,20.21-24,38.17.16,11.91,0,23.82,0,36.61H1276.82c0-12.2.09-24.42,0-36.64-.16-18.67-8.56-32.22-23.88-38.23-16.85-6.62-31.53-2.74-43.94,10-8.57,8.84-16.86,18-27.75,29.59l-22.3-27c-2.2,30.26-15.27,49.76-41.33,60.09-2.82,1.12-5,5-6.49,8.1-22.26,47.36-59.33,73.76-111.72,73.59-51.87-.17-88.47-26.63-110.67-73.39-1.74-3.66-5-7.55-8.58-9.25C840.11,1389.29,830.29,1351.69,854.13,1316.94ZM800.7,465.16a27,27,0,0,0-1.23-3.47C762.2,396.06,679.38,366.86,607.68,394c-72,27.3-115.31,105.51-99.43,179,1.49,6.87,4.74,9,11.46,9.83,30.75,3.74,56.4,17.57,76.35,41.27,18.26,21.7,27.79,46.7,27.69,75.27H585.24c-1-5.79-1.62-10.69-2.66-15.51-8.71-40.26-47-67.64-86.88-62.2a79.52,79.52,0,0,0-69.25,82.75c1.87,42.82,37,74.93,82.48,75q263.31.14,526.61,0c2.48,0,5,.11,7.42-.13,24.22-2.4,41.87-14.4,51.21-37,9.19-22.2,5.46-43.16-10.27-61.06-16.06-18.27-36.73-24.85-60.34-18-27.77,8-40.93,28.44-44.1,56.12h-39c1.45-33.29,14-60.62,41.33-78.23,14.59-9.41,17.59-21.17,18-35.92,1.72-61.75-42.67-113.14-105.16-121.75-57.06-7.86-113.41,31.42-128.47,89.05-2.3,8.81-.79,12.8,8.13,16.55,29.56,12.42,48.13,41.36,46.71,71.07H783.28c-5.95-25.34-19.41-38.47-39.66-38.88-20.62-.42-33.55,11.57-41.88,38.58H663.56c1.69-28.83,12.75-52.74,37.59-65,17.86-8.82,24.59-20.36,29.21-38.52C740.43,516.65,765.76,487.23,800.7,465.16Zm219,749.68c29.68,0,58,.21,86.33-.32,2.73-.06,6-4.31,8-7.29,16-23.86,29.53-49.73,48-71.43,26.11-30.66,55.9-58.18,83.93-87.22,41.8-43.31,67.43-94.09,70.12-155,6.72-152.16-96.5-288.63-244.59-323.38-11.65-2.73-23.6-4.18-34.67-6.1,1.13,20.1,2.15,38,3.21,56.77,2.11.17,4.91.36,7.7.63,60,5.95,100.4,60.54,88.33,119.39-9.06,44.18-48.6,77.2-94.44,78-33.25.55-66.51.11-101,.11,0,18.39,0,35.58,0,52.76.06,20.06,6.45,26.38,26.76,26.4,50.27,0,100.53-.16,150.79.09,27.27.14,49.95,17.34,57.29,42.53,11.19,38.45-17,75.76-58,76-64.68.33-129.36,0-194,.16-13.6,0-22.22,8-22.31,19.56s8.51,19.58,22,19.87c11.11.25,22.24,0,33.37.07,38.41.19,63,25,63.16,63.67C1019.77,1150.86,1019.7,1181.74,1019.7,1214.84ZM689.53,819.46c-14.66,77.46-4.31,148.65,47.72,209.54,23.23,27.18,49.31,52,74.42,77.51,29.89,30.43,57.16,62.67,74.72,102.12,1.12,2.53,4.21,5.93,6.42,6,28.71.4,57.44.27,87.15.27,0-34.78.56-68.06-.3-101.29-.3-11.27-8.69-17.39-20.17-17.61-13.18-.26-26.38.17-39.55-.17-32.91-.85-58.61-27.22-58.43-59.66.17-31.87,25.71-57.87,58-58.86,8.24-.25,16.48-.07,24.72-.07q84.67,0,169.34,0c14.13,0,22.23-5.45,24.41-16,2.69-13-7.26-23.45-23-23.49-47.79-.13-95.65-1.62-143.36.41-44.35,1.88-74.11-28.21-70.76-70.4,1.26-15.83.2-31.84.2-48.24Zm644.2,176.63c92.77,2.72,137.86,74.21,140.63,131.34,3.32,68.2-41.67,127.94-108.17,143.06-32.07,7.29-63.18,3.39-92.36-11.69-42.12-21.77-66.28-57.25-75.32-105.29-22.81,24.33-40.2,49.48-51.42,78.57-1.16,3,.52,7.84,2.3,11.06,7.21,13.07,10.7,26.54,7.59,41.51-.57,2.74,0,6.78,1.78,8.78,7.17,8.27,15,16,22.67,24,26.7-23.45,55-30.39,86.3-17.45,31.66,13.08,46.83,38.43,49.26,72h38.35c2.47-67.41,79.79-104.88,134.14-56.9,9.14-8.7,18.24-17.34,27.57-26.21-22-25.43-29.28-53.67-16.33-85,13.08-31.69,38.33-47,72.12-49.34v-38.27c-69-3.22-104-81-56.74-134.4-8.72-9.09-17.42-18.13-26.43-27.52-23.7,20.79-50.13,28.43-80.33,18.22s-46.59-32.57-53-60.61C1348.93,939.6,1341.29,968,1333.73,996.09Zm181.2-464.19c42.67-34.95,69.06-77.57,54.84-135.31-11.77-47.76-43.25-78.39-91.24-88.92-56.79-12.47-98.39,14.13-132.19,55.61ZM512.64,1213.25a3.3,3.3,0,0,0-1,1.23c-15.52,40.21-31.18,80.37-46.18,120.77-1.21,3.27.9,9.45,3.58,12.23,20.29,21,41.29,41.3,61.62,62.26,5,5.12,9.08,5.08,15.1,2.63,18.63-7.58,37.49-14.6,56.26-21.84L665.45,1366Zm90.09,28.69,142.94-143-60.95-71.12L536.7,1176C558.59,1197.82,581.51,1220.72,602.73,1241.94Zm99.88,98.92,138.53-138.61-59.62-72.1c-50,50-98,98.08-144.94,145Zm632.94-106.57c56,.27,100.87-45.85,99.41-102.13-1.43-55-49.42-99.19-104.67-95-10.73.8-23.55,4.25-31.08,11.18-19,17.46-35.7,37.46-52.93,56.8a31.24,31.24,0,0,0-7.07,13.67C1227,1176.88,1274.75,1234,1335.55,1234.29Zm-78.36-779.64L1155.45,556.42l79.64,53.4,89.11-88.13Zm98.84,98-89.13,88.44,54.44,81.28,102.5-101.93Zm-68.62-130.25,166.9,166.85c9.47-8.87,19.8-18.53,28.18-26.39L1315.28,395.64ZM1001.16,1254.1c-31.72,0-63.44,0-95.16,0-15.58,0-24.64,7.42-24.65,19.73s9,19.76,24.62,19.77q93.93.11,187.86,0c15.56,0,24.65-7.45,24.66-19.74s-9.06-19.72-24.63-19.76C1063,1254.05,1032.06,1254.1,1001.16,1254.1Zm-.84,79.12c-31.73,0-63.45-.08-95.17,0-14.78,0-23.55,7.35-23.8,19.33-.26,12.38,8.84,20.14,24.23,20.15q94.54.12,189.1,0c14.66,0,23.56-7.47,23.81-19.35.26-12.33-8.9-20.09-24.24-20.14C1062.94,1333.15,1031.63,1333.22,1000.32,1333.22ZM930.63,1413c18.37,26.6,41.87,39.63,72,38.62,27.95-.93,49.8-13.72,66.31-38.62ZM446.3,1384c-6.2,16.09-13.12,32.68-18.93,49.64-3.66,10.7,5.78,20.85,16.36,17.37,17.29-5.7,34.1-12.85,50.64-19.21Z"/><path class="cls-2" d="M1395.45,1135.09a59.29,59.29,0,1,1-59-59A59.58,59.58,0,0,1,1395.45,1135.09Zm-39.62.54a19.67,19.67,0,1,0-19.88,19.48A19.87,19.87,0,0,0,1355.83,1135.63Z"/></svg>