<svg id="Шар_1" data-name="Шар 1" xmlns="http://www.w3.org/2000/svg" viewBox="0 0 2000 2000"><defs><style>.cls-1{fill:#f1e7ff;}.cls-2{fill:#8127fb;}</style></defs><path class="cls-1" d="M448.81,429.34C336.65,548.73,195.08,720.07,262.75,888.88c23.48,58.56,57.59,112.83,75.95,173.2,29.41,96.71,16.2,200.68,26.18,301.27,16.62,167.36,118.25,218.06,236.11,314,65.37,53.21,187.79,99.79,272.83,88,112.86-15.67,220.64-79.69,338.06-94.51,42.12-5.31,85.79-8.67,123.39-28.38,51.7-27.09,83.27-80.14,119.77-125.69a569.07,569.07,0,0,1,169.43-142.42c29.63-16.29,61.6-30.61,83.69-56.21,22.6-26.18,32.08-61.09,38-95.17,21.38-123.74,3.16-254-51.35-367.15-33.37-69.25-80.18-133-99.68-207.34-25.3-96.51-4-207.77-60.11-290.25-59.69-87.68-181.69-104.71-287.51-97.4-84.52,5.84-168,19.67-252.65,8.49-68.41-9-132.24-38.47-202.26-36.41C654,237,539.17,333.15,448.81,429.34Z"/><path class="cls-2" d="M321.52,1042.48c3-12.4,5.11-25.06,9-37.14,10.08-31,28.53-56.49,54.28-77.17-25.27-50-29.45-101-9-152.68s58.62-86,110.57-104.81C449.86,538.52,571.8,411.23,713.14,450.57c12.93-26.31,30.44-49.19,53.91-67.38,91.4-70.8,225-37.84,272.38,67.62a69.14,69.14,0,0,1,5.7,26.67c.56,45,.26,90.1.26,135.16v16.14c26.49,0,51.93.17,77.36-.25,2.73,0,6.14-3.06,7.94-5.61,6.1-8.63,11.61-17.68,17.22-26.37-27.49-39.11-27.28-75.75.26-105.32,24.82-26.65,65.75-32.22,97-13.2a77.78,77.78,0,0,1,32.72,92.3c-13.46,37.76-47.64,55.56-95.06,48.94-4.93,7.86-11.18,15.55-15,24.32-9.23,21.46-24.8,28-47.5,26.28-24.1-1.87-48.46-.42-73.83-.42V767.3c4.77.23,9.46.67,14.15.67,77.3,0,154.6-.11,231.89.22,9.28,0,15.45-2.73,21.3-10,15.52-19.25,32.26-37.51,47.67-56.84,4-5,6.37-12.34,6.72-18.76.93-16.74-.28-33.58.54-50.33.47-9.67-2.23-14.5-11.63-18.61-32.15-14.06-49.86-48.6-43.81-82.51,6.18-34.67,35.71-61.45,70.18-63.66,35.55-2.28,67.55,19.12,78.69,52.64,12.43,37.41-4.74,77.58-41.3,93.75-9,4-11.31,8.76-11.06,17.76.57,20.3,1.12,40.69-.25,60.92-.61,9-3.89,19.25-9.41,26.19-21.16,26.6-43.92,51.91-65.65,78.07-7.38,8.89-15.74,12.68-27.43,12.63-81.71-.37-163.42-.2-245.14-.2h-15.56V885.6c4.22.24,8.47.68,12.72.69,83.92,0,167.85-.09,251.77.2,8.68,0,14.61-2.38,20.35-9.08,31.31-36.57,63.28-72.56,94.62-109.11,7.53-8.78,15.82-12.78,27.5-12.45,23.82.66,47.67.2,72.35.2,1.74-4,3.38-7.94,5.16-11.81,15.34-33.41,51.19-51.18,87.71-43.51,34.94,7.34,59.87,38.89,59.87,75.75s-24.48,67.6-60.11,75.44c-36.08,7.94-72.65-9.82-87.27-43.69-4-9.27-8.54-12.51-18.44-11.81a297.41,297.41,0,0,1-41,0c-11.2-.76-18.7,2.88-26,11.52-29.67,35.07-60.47,69.16-90.08,104.27-9.39,11.14-19.64,15.92-34.19,15.84-86.13-.45-172.26-.22-258.4-.22h-16.63V1073.4h15.44c87,0,174,.22,261-.22,13.55-.06,23.15,4.14,32,14.54q46.29,54.55,94.12,107.77c4,4.49,11.59,7.76,17.69,8.08,19.37,1,38.82.38,59.1.38,1.76-3.94,3.44-7.84,5.23-11.7a77.55,77.55,0,0,1,87.87-43.19c34.94,7.85,59.94,39.77,59.7,76.2-.24,35.49-25.68,67-60.15,74.42-36.32,7.86-72.61-9.78-87.24-43.72-3.83-8.88-8.24-11.67-17.44-11.37-19.86.64-39.76-.23-59.62.35-12,.36-20.76-3.69-28.66-13q-46.83-55-94.89-108.86c-3.86-4.33-10.71-8.47-16.2-8.5-86.57-.53-173.14-.38-259.72-.34-2.55,0-5.1.4-8.37.67v75.85h14.41c82.16,0,164.32.19,246.47-.2,11.72-.06,20,3.75,27.4,12.62,21.77,26.11,44.57,51.39,65.86,77.89,5.3,6.59,8.46,16.43,9,25,1.29,20.24,1,40.63.18,60.92-.39,10.16,2.46,15.35,12.31,19.68,32.9,14.43,50.81,50.4,43.9,85.06a78.87,78.87,0,0,1-73.66,63.27c-35.2,1.56-67.59-21.84-77.75-56.19-11.28-38.11,7.3-77.72,44.82-93.61,7.49-3.17,9.77-6.85,9.45-14.47-.91-21.51,4-45-3.19-64-7-18.67-27.33-31.92-39.36-49.25-13.44-19.36-29.55-25.41-53.12-24.83-70.63,1.75-141.33.63-212,.63h-14.84v96.08h21.82c20.75,0,41.54.59,62.27-.2,15.07-.57,25.28,4.9,31.92,18.48,4.05,8.29,10.06,15.63,14.07,23.94,4.21,8.74,9.33,11.4,19.49,10,40-5.41,76.7,20.68,84.92,59.14,8.39,39.3-13.35,77.78-51.13,90.53a77.36,77.36,0,0,1-87.24-27.72c-19.83-27-20-62.74-.35-90.32,1.78-2.5,3.69-4.92,6.21-8.28-5.83-9-11.48-18.36-17.82-27.2-1.76-2.45-5.53-4.84-8.42-4.89-25.1-.38-50.21-.22-77.09-.22v15.16c0,50.35.17,100.71-.19,151.06a51.4,51.4,0,0,1-4.41,20.26c-41.3,91-155.36,123.45-238.54,68-5.44-3.62-9.58-7.09-17.59-3.7-104.43,44.23-213.85-19.32-228.73-132.42-.4-3-.83-6-1.22-8.8-126.8-16.32-200.83-156.77-131.83-274.46-6.93-3.78-14.06-7.23-20.75-11.38-43.86-27.2-69.87-66.27-77.63-117.4-.38-2.52-1.52-4.93-2.31-7.39Zm97.75-136.85c5.2-1.43,10.63-2.94,16.08-4.41,46.5-12.57,99.57,6.91,124.8,45.79,7.51,11.57,6.06,23.59-3.68,30.56-9.35,6.69-20.17,4.53-29.1-5.85-1.73-2-3.22-4.21-4.93-6.23-22.8-26.9-59.56-34.46-91.25-18.78-52.07,25.75-79.3,85.86-63.16,141.61,13.25,45.79,44,74.24,89.93,86.48,15.79,4.21,23.17,13.19,19.63,25.88-1.56,5.63-5.72,10.78-9.48,15.53-59.91,75.77-27.06,187.46,64.56,217,14.33,4.62,31.41,8.81,45.16,5.26,23.53-6.07,46.18-17.06,67.69-28.76,9.6-5.23,17.18-16.28,22.74-26.31,7.4-13.38,16.44-20.26,27.46-16.11,12.1,4.55,16.37,16,11.37,31a82.22,82.22,0,0,1-38,46.09c-20.51,11.77-42.6,20.85-64.28,30.47-6.19,2.74-10.05,4.41-9.16,12.84,8.7,83,96.94,133.14,172.51,97.7,51.87-24.32,66.28-61,45.29-115.31a21.07,21.07,0,0,1,10.42-26.85c10.52-4.93,22.22-.67,28,10.19,23.4,44.07,16.72,97.1-16.89,134.3-2.17,2.41-4.16,5-6.3,7.57,61,37.4,142.22,13.2,171.8-50.63a40.45,40.45,0,0,0,3.75-16.41q.29-239.14-.24-478.28c0-5.76-4.34-13.6-9.12-16.89-24.72-17-50.9-17.74-77.49-3.79-13.62,7.15-25.53,4.33-31.47-7.38-5.69-11.22-1.48-21.68,12.19-29,30-16.12,61.18-18.56,93.4-7.55,3.87,1.32,7.66,2.84,12.88,4.78,0-64.21.17-126-.37-187.81,0-4.64-4.11-10.82-8.16-13.6C969.3,770.37,941.79,770,913.75,786c-12.84,7.32-25.11,4.61-30.92-6.1-5.72-10.53-2.06-21.57,10.15-29.12,20.91-12.94,43.82-19,68.25-16.35,14.19,1.53,28.12,5.51,42.48,8.46a44.64,44.64,0,0,0,.66-5.19c.68-85.23,1.44-170.46,1.76-255.69,0-6.3-2.06-13.16-5-18.85-24.52-48.14-64.23-75.05-117.93-77.05s-95.13,22.14-123.8,67.71c-1.75,2.79-2.65,6.13-3.85,9a22,22,0,0,0,3,2.15c60.61,26.54,83.26,89.42,71.74,151.24-2.36,12.66-13.1,20.11-25,18.08-10.85-1.84-17.81-12.46-16.32-25,.26-2.18.93-4.32,1.2-6.51,6.06-48.88-14.9-88.17-54.9-101.68a467.34,467.34,0,0,0-45.71-12.82,131.72,131.72,0,0,0-74.32,4.47c-72.62,25.6-109.37,103.81-83.48,177.49,13.08,37.25,33.91,48,71.34,36.78,11.78-3.53,22.6,1.77,26.69,13.07,4,11-1.37,21.92-13,26.63-37.8,15.3-80.88,4.58-106.2-27.75-6.28-8-11.67-9.68-19.77-5.13-12.64,7.1-26.29,13-37.53,21.89C402,776.3,386.56,854.2,419.27,905.63ZM1637.38,775.4A35.87,35.87,0,0,0,1601,739.67c-20.73.14-36.9,16.66-36.36,37.15.52,19.72,17.18,35.5,37.11,35.16A36.1,36.1,0,0,0,1637.38,775.4ZM1390.19,579.48c19.85-.24,36.08-16.78,35.82-36.51a36.75,36.75,0,0,0-36.57-35.91c-19.77,0-36.41,16.41-36.51,36C1352.82,563.34,1369.57,579.73,1390.19,579.48ZM1241,1456.29a36.38,36.38,0,1,0-35.57,36.79A36.61,36.61,0,0,0,1241,1456.29Zm184.52-.06c0-19.64-16.44-35.6-36.66-35.58a36.09,36.09,0,0,0-36.28,36,36.47,36.47,0,1,0,72.94-.39ZM1241,543.67c.07-19.68-16.33-36.32-36-36.49a36.5,36.5,0,0,0-36.78,36.95,36.37,36.37,0,0,0,72.73-.46Zm395.72,679.86c-.29-20-16.36-35.58-36.6-35.37a36,36,0,0,0-35.75,36.34c.08,20.72,16.53,36.56,37.33,36C1622,1259.86,1637.05,1244,1636.75,1223.53Z"/><path class="cls-2" d="M864.54,1222.05c-56.32-1.33-108.71-36.49-118.6-107.36-1.6-11.48,7.06-21.91,18.57-23.4,12.27-1.59,21.78,7,23.47,21.25,4,34,27.37,60,60.66,66.56,7.68,1.52,15.79,1,23.71,1.1,13.94.15,23.51,7.67,24,19.22.51,11-7.56,19.51-20.71,21.5C871.33,1221.58,866.91,1221.81,864.54,1222.05Z"/><path class="cls-2" d="M689,825.92c49.55,1,82.11,16.65,105.86,49.3,8.76,12,7.53,24.34-2.44,31.59-9.23,6.73-21.35,4-30.1-6.67-27.64-33.83-61.46-41.44-99.82-22.44-12.29,6.08-24,3.12-29.7-7.53s-2.32-23.09,10.29-28.37C660.69,834.41,679.24,829.21,689,825.92Z"/><path class="cls-2" d="M614.71,1124.11c-2.11,34.21,18.53,64.44,51.7,76.25,5.68,2,11.76,4.35,16.13,8.25,7.38,6.57,8.22,15.62,3.62,24.18s-11.93,12.43-22.06,10.46c-55.25-10.76-97.57-69.78-90-125.78q3.3-24.65,23-22.8c13.07,1.23,19.22,10.44,17.88,26.81C614.88,1122.35,614.79,1123.23,614.71,1124.11Z"/></svg>