<svg id="Шар_1" data-name="Шар 1" xmlns="http://www.w3.org/2000/svg" viewBox="0 0 2000 2000"><defs><style>.cls-1{fill:#f1e7ff;}.cls-2{fill:#8127fb;}</style></defs><path class="cls-1" d="M491.07,513.9c-67,71.29-122,145-165,247-36,85.28-42.37,264.15,2.11,345.85,57.64,105.86,180.14,153.69,213.23,280.26,17.44,66.75,6.33,140.07,33.64,203.42,40.16,93.15,149.56,134.73,250.13,147.93,156.72,20.57,378.34,5.95,501.81-106.27,66.94-60.84,65.86-178.39,142.52-226.4,29.18-18.27,64.79-22.7,96.44-36.25,142.7-61.1,149.88-235.24,127.74-366.54-5.13-30.38-12.8-61.07-29.79-86.76-11.31-17.09-26.32-31.35-41.2-45.44-55.57-52.61-131.27-106.87-140-189.43-3.75-35.51,1.69-71.48-1.45-107-7.43-84.1-63.31-158.54-133.86-204.93C1214.57,282,1001.14,226.9,846.64,267.15c-96.7,25.2-184.51,79.41-256.72,148.48C554.5,449.52,521.55,481.46,491.07,513.9Z"/><path class="cls-2" d="M433.56,764.81c1.84-8.16,3.37-16.41,5.59-24.47,21.09-76.92,69.76-127.81,147.23-146.49,77.1-18.6,143.23,4.54,196.85,63,1.49,1.63,2.92,3.32,4.42,4.94a1.9,1.9,0,0,0,.81.36C834.42,530.84,923.72,456.69,1066,466c108.71,7.1,186.48,67.85,222.6,170.42,43.19,122.67,3.87,224.14-96.52,305.41,8.12,0,15.36,0,22.59,0,44.88.35,77,32.63,77.34,77.73.1,15,0,30,0,46.14,14.56,0,28.1.07,41.63-.08a8.89,8.89,0,0,0,4.74-1.91c8.46-6.28,16.3-13.55,25.27-18.94,36.94-22.2,74.36-43.59,111.29-65.79,20.66-12.42,41.49-15.14,62.71-2.82,20.76,12.06,28.85,31.08,28.81,54.74q-.3,207.4-.12,414.81c0,51.6-45.89,78.18-90.39,52.29-42-24.45-85.62-46.78-125-75-19.55-14-37.7-10.4-59-12.43,0,16.64.09,32.68,0,48.72-.13,19.2-6.49,36.12-19.38,50.4-14.31,15.84-32.3,24.78-53.58,24.87-84.8.36-169.61.23-254.41.14-14.38,0-24.09-9.07-24.28-21.73-.21-13.08,9.73-22.39,24.71-22.41q122.22-.15,244.45-.06c27,0,38.28-11.25,38.28-38.21q0-214,0-428.08c0-26.92-11.28-38.14-38.33-38.14H515.86c-26.88,0-38.05,11.29-38.05,38.42q0,213.49,0,427c0,27.94,10.95,39,38.55,39q118.9,0,237.82,0a99.18,99.18,0,0,1,11.05.2,22.19,22.19,0,0,1,20,21.43c.26,11.43-8.34,21.13-20.16,22.43a101.89,101.89,0,0,1-11.06.18H517.32c-44.49,0-68.71-17.78-82.34-60.36-.2-.62-.94-1.06-1.42-1.59v-469a18.38,18.38,0,0,0,2-3.72c8.85-32.48,30.16-51.28,62.94-57.59,2.2-.43,4.39-.94,7.75-1.67-31.9-27.38-53.63-59.64-64.73-98.63-3.3-11.58-5.34-23.52-8-35.3Zm1088.53,474.05c0-68.9.16-137.8-.28-206.69,0-5.88-2.49-14.83-6.54-16.81-4.79-2.34-13.48-.35-18.82,2.7-36.45,20.76-72.4,42.42-108.69,63.46-5.5,3.19-7.42,6.72-7.4,13q.3,143.68,0,287.38c0,6.26,1.79,9.86,7.33,13.06,36.3,21,72.25,42.7,108.69,63.47,5.35,3,14.5,5.33,18.74,2.76s6.65-11.64,6.69-17.88C1522.26,1375.18,1522.09,1307,1522.09,1238.86ZM827.33,724.75c-.05,119.49,97,216.88,216.23,217s217-96.87,217.37-216.06c.34-119.82-97.13-217.58-216.93-217.56C924.61,508.19,827.38,605.38,827.33,724.75ZM633.07,632.07c-85.31-.14-155,69.08-155.26,154.17-.23,85.32,68.91,155.2,153.9,155.55,85.77.36,155.78-69.17,155.83-154.75C787.59,701.84,718.18,632.21,633.07,632.07Zm702.36,734.07V1110.5h-42.82v255.64ZM819,857.28C805.63,890.87,786,917.77,759,941H897.47C865,918.1,839.74,891.27,819,857.28Z"/><path class="cls-2" d="M767.54,1428.55q-92.86,0-185.71,0c-21.29,0-28.78-7.38-28.79-28.38q0-100,0-200.08c0-20.49,7.59-28.16,27.88-28.17q186.81,0,373.62,0c20.23,0,27.69,7.66,27.7,28.36q0,100,0,200.07c0,20.49-7.61,28.17-27.89,28.19Q860.95,1428.59,767.54,1428.55Zm170-211.63H598.16v166.81H937.49Z"/><path class="cls-2" d="M1035.35,1335c0-16.57-.13-33.13,0-49.69.17-16.07,8.58-24.78,24.43-24.87q50.79-.27,101.59,0c15.39.09,24.21,8.67,24.31,23.85q.33,51.35,0,102.7c-.11,15.15-9,23.69-24.39,23.78q-50.8.27-101.59,0c-15.75-.09-24.18-8.9-24.34-25C1035.22,1368.88,1035.35,1352,1035.35,1335Zm105.72-29.57h-60.58V1366h60.58Z"/><path class="cls-2" d="M1185.76,1124c-.32,41.23-34.52,74.78-75.92,74.46-41.2-.32-74.77-34.56-74.46-75.94.31-41.21,34.54-74.76,75.93-74.44S1186.07,1082.52,1185.76,1124Zm-44.3-1a30.89,30.89,0,1,0-30.65,31.14A31.15,31.15,0,0,0,1141.46,1123Z"/><path class="cls-2" d="M884.81,1512.37a22,22,0,1,1-21.73-21.79A22.31,22.31,0,0,1,884.81,1512.37Z"/><path class="cls-2" d="M1043.93,552.42c95,0,172.58,77.27,172.75,172.15.17,95.41-77.57,173.12-173,173-94.9-.14-172.09-77.63-172.05-172.72S949,552.45,1043.93,552.42ZM915.83,724.21c-.22,71,57.33,129,128,129.08,70.26.08,128.24-57.46,128.55-127.56.32-70.77-57.48-129-128.14-129.06C974,596.58,916,654.09,915.83,724.21Z"/><path class="cls-2" d="M734.41,787.56c-.27,56-46.52,101.52-102.65,101.11-55.92-.41-101.33-46.78-100.82-102.95.51-55.45,46.45-100.69,102.11-100.53C689.1,685.35,734.68,731.39,734.41,787.56Zm-44.25-.15a57.69,57.69,0,0,0-57.28-58c-31.29-.09-57.24,25.3-57.69,56.45-.46,31.8,25.1,58.19,56.71,58.54S689.94,819.06,690.16,787.41Z"/><path class="cls-2" d="M1043.92,642.73a21.83,21.83,0,0,1,22.24,21.36c.24,12.17-10.39,22.81-22.5,22.53a22.47,22.47,0,0,1-21.59-22.25A21.65,21.65,0,0,1,1043.92,642.73Z"/><path class="cls-2" d="M1044.51,807.23a21.66,21.66,0,0,1-22.43-21.07c-.4-12.26,9.89-22.89,22.1-22.82a22.54,22.54,0,0,1,22,21.93A21.84,21.84,0,0,1,1044.51,807.23Z"/><path class="cls-2" d="M1126.35,724.9A21.82,21.82,0,0,1,1104.89,747c-12.18.2-22.79-10.44-22.48-22.54a22.57,22.57,0,0,1,22.33-21.57A21.75,21.75,0,0,1,1126.35,724.9Z"/><path class="cls-2" d="M983.51,702.92a22.06,22.06,0,1,1-.38,44.11,22.06,22.06,0,0,1,.38-44.11Z"/></svg>