<?xml version="1.0" encoding="utf-8"?>
<!-- Generator: Adobe Illustrator 28.2.0, SVG Export Plug-In . SVG Version: 6.00 Build 0)  -->
<svg version="1.1" id="Шар_1" xmlns="http://www.w3.org/2000/svg" xmlns:xlink="http://www.w3.org/1999/xlink" x="0px" y="0px"
	 viewBox="0 0 2000 2000" style="enable-background:new 0 0 2000 2000;" xml:space="preserve">
<style type="text/css">
	.st0{fill:#F1E7FF;}
	.st1{fill:#8127FB;}
	.st2{fill:none;stroke:#000000;stroke-width:40;stroke-linecap:round;stroke-linejoin:round;stroke-miterlimit:10;}
	.st3{stroke:#000000;stroke-width:10;stroke-miterlimit:10;}
</style>
<path class="st0" d="M417.7,1414.9c61.79,32.17,132.13,33.63,192.13,64.76c74.11,38.45,147.3,76.29,228.45,98.89
	c83.24,23.19,173.18,29.92,255.6,3.96c113.93-35.89,207.56-131.51,326.57-141.73c28.82-2.47,58,0.3,86.65-3.69
	c96.23-13.41,166.79-100.29,201.43-191.07c25.51-66.86,40.62-144.42,39.08-216.11c-1.45-67.27-57.37-107.88-76.08-171.78
	c-7.52-25.68-8.04-52.8-11.04-79.39c-16.13-143.24-111.76-273.87-241.28-336.05c-157.55-75.63-312.38-18.21-478.34-16.14
	c-81.16,1.01-161.4-15.81-242.26-22.84c-80.87-7.03-166.03-3.33-237.39,35.35c-27.24,14.77-51.83,34.38-72.29,57.65
	c-58.44,66.49-79.59,157.49-90.56,245.32c-17.18,137.59-59.43,281.49-41.94,420.34c9.42,74.77,37.19,149.56,90.97,202.36
	C368.13,1385.07,392,1401.51,417.7,1414.9z"/>
<g>
	<path class="st1" d="M1606.46,1313.83c0.12-17.69-5.98-23.62-23.41-23.74c-12.05-0.09-24.1-0.02-36.81-0.02c0-6.97,0-12,0-17.03
		c0-205.64,0.02-411.27-0.02-616.91c-0.01-42.35-25.55-68.34-67.44-68.35c-316.69-0.06-633.38-0.05-950.06,0.05
		c-6.69,0-13.6,0.36-20.03,2.02c-29.7,7.68-47.29,32.02-47.3,65.12c-0.05,206.06-0.02,412.12-0.03,618.17c0,5.02,0,10.03,0,16.92
		c-13.41,0-25.16-0.07-36.91,0.02c-16.99,0.12-23.13,5.98-23.35,22.56c-0.18,12.67-0.19,25.34,0.02,38
		c0.28,17.12,5.84,32.32,17.82,44.76c14.42,14.98,32.43,19.55,52.87,19.54c354.69-0.22,709.38-0.16,1064.07-0.16
		c2.96,0,5.91,0.01,8.87-0.09c30.51-1.05,55.35-21.44,59.96-51.64C1607.16,1346.93,1606.35,1330.26,1606.46,1313.83z
		 M496.83,1274.45c0-204.4,0-408.8,0-613.2c0-30.11,8-38.02,38.44-38.02c312.51,0,625.02-0.01,937.54,0
		c29.66,0,37.95,8.14,37.95,37.27c0.01,204.82,0,409.64,0,614.47c0,4.55,0,9.1,0,15.1c-6.02,0-10.95,0-15.88,0
		c-114.45,0-228.89,0-343.34,0c-27.92,0-27.92,0-33.93,26.59c-75.64,0-151.46,0-228.15,0c-0.51-3.27-1.11-6.47-1.48-9.69
		c-1.28-11.03-7.66-16.42-18.52-16.84c-3.8-0.14-7.6-0.05-11.4-0.05c-114.87,0-229.74,0-344.61,0c-4.99,0-9.98,0-16.63,0
		C496.83,1283.65,496.83,1279.05,496.83,1274.45z M1570.55,1354.16c-1.59,14.97-12.06,24.17-27.08,25.02
		c-4.63,0.26-9.29,0.13-13.93,0.13c-348.39,0-696.78-0.42-1045.17,0.49c-48.74,0.13-49.99-18.29-47.05-53.66
		c138.26,0,275.79,0,414.16,0c0.38,1.79,0.95,3.68,1.18,5.61c1.97,16.3,7.08,21.06,23.83,21.09c62.92,0.09,125.84,0.04,188.77,0.04
		c19.85,0,39.7,0,59.54,0c24.65-0.01,27.37-2.27,31.31-26.68c137.76,0,275.62,0,414.63,0
		C1570.73,1335.86,1571.51,1345.1,1570.55,1354.16z"/>
	<path class="st1" d="M556.73,1257.3c149.05,0.01,298.11,0,447.16,0c149.05,0,298.11,0,447.16,0c22.28,0,26.93-4.53,26.94-26.31
		c0.01-182.83,0.01-365.67,0-548.5c0-22.46-4.16-26.69-26.5-26.69c-298.53-0.02-597.06-0.02-895.6,0
		c-22.21,0-26.28,4.23-26.28,26.88c-0.01,182.41-0.01,364.83,0,547.24C529.61,1252.94,533.93,1257.3,556.73,1257.3z M566,691.96
		c292.07,0,583.59,0,875.81,0c0,176.55,0,352.42,0,529.07c-291.81,0-583.35,0-875.81,0C566,1044.88,566,868.73,566,691.96z"/>
</g>
</svg>
