<?xml version="1.0" encoding="utf-8"?>
<!-- Generator: Adobe Illustrator 28.2.0, SVG Export Plug-In . SVG Version: 6.00 Build 0)  -->
<svg version="1.1" id="Шар_1" xmlns="http://www.w3.org/2000/svg" xmlns:xlink="http://www.w3.org/1999/xlink" x="0px" y="0px"
	 viewBox="0 0 2000 2000" style="enable-background:new 0 0 2000 2000;" xml:space="preserve">
<style type="text/css">
	.st0{fill:#F1E7FF;}
	.st1{fill:#8127FB;}
	.st2{fill:none;stroke:#000000;stroke-width:40;stroke-linecap:round;stroke-linejoin:round;stroke-miterlimit:10;}
	.st3{stroke:#000000;stroke-width:10;stroke-miterlimit:10;}
</style>
<path class="st0" d="M488.87,1319.66c76.5,61.8,117.38,136.29,177.84,210.67c55.31,68.05,157.65,122.8,238.83,152.23
	c107.63,39.02,228.5,46.74,336.74,9.45c54.51-18.78,120.15-51.3,157.93-96.47c37.05-44.3,42.35-106.03,63.17-159.23
	c28.68-73.28,98.62-120.44,151.05-179.12c98.2-109.9,134.91-250.82,115.32-395.56c-17.37-128.39-53.42-288.82-175.56-347.34
	c-44.43-21.29-88.89-42.59-134.58-61.02c-204.03-82.27-423.44-77.54-638.37-96.83C671.3,346.58,557.96,382.12,473.33,453
	c-70.48,59.04-126.66,147.27-142.13,238.84c-13.55,80.18-57.79,141.82-73.67,220.98c-19.71,98.3,1.69,207.06,70.88,281.98
	c42.24,45.73,97.24,77.2,147.11,114.46C480.09,1312.7,484.54,1316.16,488.87,1319.66z"/>
<g>
	<path class="st1" d="M973.23,1425.32c-15.29-2.11-30.67-3.78-45.87-6.42c-91.86-15.93-170.13-57.79-234.59-124.96
		c-63.66-66.34-103.09-145.28-114.14-236.51c-18.07-149.25,29.12-275.64,140.66-376.64c63.22-57.24,138.36-91.12,222.91-102.09
		c115.31-14.97,220.66,11.8,313.59,81.99c87.02,65.74,140.83,153.11,161.87,260.27c2.87,14.62,3.99,29.58,5.97,44.38
		c0.36,2.71,0.99,5.39,1.49,8.08c0,17.72,0,35.44,0,53.16c-0.47,2.14-1.21,4.26-1.37,6.42c-5.59,72.92-28.11,140.26-68.94,200.86
		c-67.77,100.58-161.47,162.55-280.93,184.86c-15.69,2.93-31.65,4.43-47.49,6.59C1008.67,1425.32,990.95,1425.32,973.23,1425.32z
		 M617.17,999.69c-0.23,211.45,170.98,382.85,382.53,382.98c211.16,0.13,382.11-170.47,382.75-381.95
		c0.63-211.34-170.28-382.81-382.12-383.38C789.08,616.78,617.4,788.1,617.17,999.69z"/>
	<path class="st1" d="M872.09,999.18c0-50.09-0.04-100.18,0.02-150.27c0.02-17.85,9.56-29.83,25.67-32.59
		c9.43-1.62,17.18,2.3,24.74,7.35c56.11,37.48,112.28,74.87,168.43,112.29c18.64,12.42,37.31,24.8,55.89,37.32
		c21.9,14.75,21.96,38.8,0.01,53.46c-75.19,50.23-150.48,100.34-225.67,150.57c-10.77,7.2-21.83,9.37-33.51,2.88
		c-11.29-6.27-15.63-16.47-15.61-29.08C872.14,1100.46,872.09,1049.82,872.09,999.18z M1110.39,1000.01
		c-65.58-43.72-129.86-86.58-195.02-130.02c0,87.16,0,172.95,0,260.05C980.6,1086.54,1044.88,1043.68,1110.39,1000.01z"/>
</g>
</svg>
