<?xml version="1.0" encoding="utf-8"?>
<!-- Generator: Adobe Illustrator 28.2.0, SVG Export Plug-In . SVG Version: 6.00 Build 0)  -->
<svg version="1.1" id="Шар_1" xmlns="http://www.w3.org/2000/svg" xmlns:xlink="http://www.w3.org/1999/xlink" x="0px" y="0px"
	 viewBox="0 0 2000 2000" style="enable-background:new 0 0 2000 2000;" xml:space="preserve">
<style type="text/css">
	.st0{fill:#F1E7FF;}
	.st1{fill:#8127FB;}
	.st2{fill:none;stroke:#000000;stroke-width:40;stroke-linecap:round;stroke-linejoin:round;stroke-miterlimit:10;}
	.st3{stroke:#000000;stroke-width:10;stroke-miterlimit:10;}
</style>
<path class="st0" d="M497.18,1293.8c74.42,60.12,112.88,158.76,189.4,211.43c103.77,71.43,230.9,91.21,344.89,140.93
	c114.48,49.93,237.01-1.77,325.82-79.69c59.7-52.39,109.16-116.28,145.53-186.86c19.09-37.05,31.17-75.44,45.58-114.26
	c14.92-40.22,22.81-37.55,56.03-64.27c51.48-41.41,77.35-107,90.94-171.66c24.8-118,13.6-242.64-28.44-355.41
	c-21.76-58.36-51.65-115.99-90.6-164.84c-36.1-45.28-95.18-60.29-148.39-81.75c-140.86-56.8-292.86-72.37-443.08-82.88
	c-133.69-9.36-266.18-41.72-351.91,89.22c-37.33,57.02-51.46,130.31-102.67,175.28c-19.83,17.41-43.85,29.17-66.19,43.2
	c-91.9,57.72-155.89,157.9-169.62,265.56c-9.21,72.2,4.29,146.86,36.66,211.93c36.29,72.95,89.48,106.44,152.71,153.7
	C488.39,1286.84,492.84,1290.3,497.18,1293.8z"/>
<g>
	<path class="st1" d="M1425.25,973.42c0,17.72,0,35.43,0,53.15c-0.48,2.13-1.07,4.23-1.41,6.38c-3.42,21.8-5.43,43.93-10.4,65.38
		c-37.89,163.46-175.22,292.56-340.2,320.41c-15.46,2.61-31.08,4.33-46.62,6.47c-17.72,0-35.43,0-53.15,0
		c-2.39-0.49-4.77-1.1-7.19-1.45c-18.04-2.62-36.32-4.14-54.1-7.96c-94.96-20.4-174.52-67.61-236.59-142.1
		c-85.84-103.02-117.22-221.67-92.82-353.56c19.64-106.18,74.16-192.39,159.84-257.68c97.38-74.21,207.61-101.01,328.48-81.49
		c80.71,13.03,151.51,47.91,212.12,102.57c72.68,65.54,118.26,146.6,135.49,243.18C1421.46,942.18,1423.09,957.85,1425.25,973.42z
		 M1375.41,1000.07c0.08-206.91-168.6-375.57-375.5-375.45c-206.64,0.11-374.79,168.09-375.24,374.85
		c-0.45,206.69,168.12,375.63,375.06,375.89C1206.55,1375.62,1375.33,1207.01,1375.41,1000.07z"/>
	<path class="st1" d="M975.13,925.2c0-24.07-0.05-48.15,0.02-72.22c0.05-16.11,10.35-27.35,24.87-27.36
		c14.52-0.01,24.89,11.22,24.91,27.32c0.07,43.17-0.11,86.34,0.25,129.5c0.03,4.08,2.14,9.16,5.01,12.06
		c44.39,44.83,89.04,89.42,133.71,133.97c6.33,6.31,11.15,13.19,10.38,22.52c-0.78,9.5-5.38,16.73-14.19,20.88
		c-8.79,4.14-17.24,3.13-25.1-2.34c-2.47-1.72-4.62-3.95-6.76-6.1c-47.17-47.14-94.23-94.4-141.57-141.37
		c-8-7.94-11.93-16.57-11.68-27.96C975.48,971.14,975.13,948.17,975.13,925.2z"/>
	<path class="st1" d="M1024.93,726.01c0.01,8.28,0.21,16.57-0.04,24.84c-0.43,14.12-11.2,24.81-24.73,24.88
		c-13.52,0.07-24.68-10.62-24.94-24.63c-0.32-16.83-0.33-33.68,0.01-50.51c0.28-13.97,11.57-24.62,25.1-24.46
		c13.2,0.16,23.99,10.61,24.53,24.21C1025.19,708.89,1024.92,717.45,1024.93,726.01z"/>
	<path class="st1" d="M725.91,1024.89c-8.28,0.01-16.57,0.21-24.84-0.04c-14.09-0.41-24.81-11.2-24.89-24.72
		c-0.08-13.51,10.62-24.69,24.61-24.96c16.83-0.32,33.68-0.33,50.51,0.01c13.99,0.28,24.64,11.55,24.48,25.09
		c-0.16,13.2-10.61,24.01-24.2,24.55C743.03,1025.15,734.47,1024.88,725.91,1024.89z"/>
	<path class="st1" d="M1274.02,1024.89c-8.28,0.01-16.57,0.21-24.84-0.04c-14.09-0.41-24.8-11.21-24.88-24.73
		c-0.08-13.51,10.62-24.69,24.61-24.95c16.83-0.32,33.68-0.33,50.51,0.01c13.99,0.29,24.64,11.55,24.47,25.09
		c-0.16,13.2-10.61,24.01-24.2,24.55C1291.15,1025.15,1282.58,1024.88,1274.02,1024.89z"/>
	<path class="st1" d="M1024.94,1274.64c0,8,0.18,16.01-0.04,24.01c-0.38,14.56-11.39,25.42-25.25,25.2
		c-13.53-0.21-24.25-10.97-24.46-25.14c-0.25-16.56-0.28-33.13,0.01-49.68c0.25-14.07,11.25-24.77,24.79-24.78
		c13.53-0.02,24.44,10.66,24.88,24.72C1025.16,1257.51,1024.94,1266.08,1024.94,1274.64z"/>
	<path class="st1" d="M1211.64,1236.09c-13.83,0.08-25-10.79-25.15-24.49c-0.14-13.43,11.21-24.97,24.73-25.13
		c13.64-0.16,24.81,10.92,24.89,24.71C1236.21,1225.17,1225.56,1236,1211.64,1236.09z"/>
	<path class="st1" d="M763.94,788.24c0.14-13.88,11.05-24.49,25.05-24.33c13.82,0.15,24.84,11.38,24.56,25.03
		c-0.27,13.55-11.87,24.83-25.27,24.6C774.54,813.29,763.8,802.13,763.94,788.24z"/>
	<path class="st1" d="M1236.16,788.62c-0.02,13.71-11.21,24.99-24.76,24.96c-13.33-0.03-24.96-11.69-24.95-25.01
		c0.01-13.5,11.37-24.72,25.01-24.71C1225.32,763.88,1236.18,774.77,1236.16,788.62z"/>
	<path class="st1" d="M788.73,1236.12c-13.8,0.05-24.77-10.85-24.81-24.65c-0.04-13.71,11.09-25.03,24.65-25.07
		c13.32-0.04,24.98,11.55,25.05,24.9C813.69,1224.85,802.44,1236.07,788.73,1236.12z"/>
</g>
</svg>
