<svg width="15" height="15" viewBox="0 0 15 15" fill="none" xmlns="http://www.w3.org/2000/svg">
<path d="M15 0.938221V8.44398C15 8.69282 14.9012 8.93146 14.7252 9.10741C14.5493 9.28336 14.3106 9.38221 14.0618 9.38221C13.8129 9.38221 13.5743 9.28336 13.3984 9.10741C13.2224 8.93146 13.1236 8.69282 13.1236 8.44398V3.20318L1.59001 14.7366C1.41306 14.9075 1.17607 15.0021 0.930068 15C0.68407 14.9978 0.448752 14.8992 0.274799 14.7252C0.100845 14.5512 0.00217313 14.3159 3.5467e-05 14.0699C-0.00210219 13.8239 0.0924656 13.5869 0.26337 13.41L11.7968 1.87644H6.55602C6.30718 1.87644 6.06854 1.77759 5.89259 1.60164C5.71664 1.42569 5.61779 1.18705 5.61779 0.938221C5.61779 0.689389 5.71664 0.450749 5.89259 0.274799C6.06854 0.0988481 6.30718 0 6.55602 0H14.0618C14.3103 0.00108623 14.5483 0.100283 14.724 0.275998C14.8997 0.451714 14.9989 0.689724 15 0.938221Z" fill="white"/>
</svg>
