<svg width="55" height="55" viewBox="0 0 55 55" fill="none" xmlns="http://www.w3.org/2000/svg">
<rect width="55" height="55" rx="27.5" fill="white"/>
<rect x="0.5" y="0.5" width="54" height="54" rx="27" stroke="black" stroke-opacity="0.25"/>
<path d="M36.9984 27.9877C36.9984 28.2529 36.8931 28.5073 36.7055 28.6948C36.518 28.8824 36.2637 28.9877 35.9984 28.9877H20.4125L23.7054 32.2807C23.801 32.373 23.8771 32.4833 23.9295 32.6053C23.982 32.7273 24.0095 32.8585 24.0107 32.9913C24.0118 33.1241 23.9865 33.2558 23.9363 33.3787C23.886 33.5016 23.8117 33.6132 23.7178 33.7071C23.6239 33.801 23.5123 33.8753 23.3894 33.9255C23.2665 33.9758 23.1348 34.0011 23.002 34C22.8693 33.9988 22.738 33.9712 22.616 33.9188C22.494 33.8664 22.3837 33.7902 22.2914 33.6947L17.292 28.6954C17.105 28.5074 17 28.2529 17 27.9877C17 27.7225 17.105 27.4681 17.292 27.28L22.2914 22.2807C22.48 22.0986 22.7326 21.9978 22.9948 22C23.257 22.0023 23.5079 22.1075 23.6933 22.2929C23.8787 22.4783 23.9838 22.7291 23.9861 22.9913C23.9884 23.2535 23.8876 23.5061 23.7054 23.6947L20.4125 26.9877H35.9984C36.2637 26.9877 36.518 27.0931 36.7055 27.2806C36.8931 27.4681 36.9984 27.7225 36.9984 27.9877Z" fill="#6F6F6F"/>
</svg>
