<svg width="55" height="55" viewBox="0 0 55 55" fill="none" xmlns="http://www.w3.org/2000/svg">
<rect x="0.5" y="54.5" width="54" height="54" rx="27" transform="rotate(-90 0.5 54.5)" stroke="#6F6F6F"/>
<path d="M27.9877 37.9999C28.2529 37.9999 28.5073 37.8946 28.6948 37.707C28.8824 37.5195 28.9877 37.2651 28.9877 36.9999L28.9877 21.414L32.2807 24.7069C32.373 24.8024 32.4833 24.8786 32.6053 24.931C32.7273 24.9834 32.8585 25.011 32.9913 25.0122C33.1241 25.0133 33.2558 24.988 33.3787 24.9377C33.5016 24.8874 33.6132 24.8132 33.7071 24.7193C33.801 24.6254 33.8753 24.5138 33.9255 24.3909C33.9758 24.268 34.0011 24.1363 34 24.0035C33.9988 23.8707 33.9712 23.7395 33.9188 23.6175C33.8664 23.4955 33.7902 23.3852 33.6947 23.2929L28.6954 18.2935C28.5074 18.1065 28.2529 18.0015 27.9877 18.0015C27.7225 18.0015 27.4681 18.1065 27.28 18.2935L22.2807 23.2929C22.0986 23.4815 21.9978 23.7341 22 23.9963C22.0023 24.2585 22.1075 24.5093 22.2929 24.6947C22.4783 24.8801 22.7291 24.9853 22.9913 24.9876C23.2535 24.9899 23.5061 24.8891 23.6947 24.7069L26.9877 21.414L26.9877 36.9999C26.9877 37.2651 27.0931 37.5195 27.2806 37.707C27.4681 37.8946 27.7225 37.9999 27.9877 37.9999Z" fill="#6F6F6F"/>
</svg>
