<svg id="Шар_1" data-name="Шар 1" xmlns="http://www.w3.org/2000/svg" viewBox="0 0 2000 2000"><defs><style>.cls-1{fill:#f1e7ff;}.cls-2{fill:#8127fb;}</style></defs><path class="cls-1" d="M1686.54,1225.86c-12-55-40.45-108.95-45.57-165.35-5.26-57.84,36.61-118.25,50.08-173.7,24.11-99.24-1.54-210.4-70.58-285.66-64.55-70.37-147-89.48-238.44-92.29-81.46-2.49-169.34,16.15-248.59-4.68-42.26-11.11-81.65-32.77-124.87-39.22-151.9-22.66-283.63-49-423.85,39.89C419.72,609.5,282,825.06,302,1024.48c9.44,93.83,54.4,179.54,128.66,234.76,80,59.52,161.16,122.65,211,211.33,21.15,37.63,35.89,78.87,60.16,114.57C751,1657.42,839.53,1701,926.77,1695.78c112.19-6.68,208.62-86.07,320-101.3,112.49-15.37,239.4,33.75,334-29.08C1679.6,1499.69,1710.62,1336.13,1686.54,1225.86Z"/><path class="cls-2" d="M414,1468.39c11.47-32.36,25.33-44.52,51.83-44.92,17.08-.26,34.16-.06,51.23-.06h16.17c0-21.45,0-41.74,0-62,.09-32.87,15.26-47.9,48.26-47.92h31.81c0-23.15-.85-45.43.15-67.63,3.57-79.18,35.39-146.19,89.08-203.58,24.46-26.14,49.4-51.89,72.69-79,11-12.78,19.74-27.85,27.27-43S809.08,889,801,872.4c-30.88,24.92-65.42,19.25-99.85,15.08-14.95-1.82-30-2.87-47.36-4.48,3.69,11.42,6.33,19.18,8.7,27,4,13.33.88,21.57-11.59,27.86q-44.56,22.46-89.46,44.28c-14.26,6.94-23.2,3.91-31-10.37q-34.58-63.6-68.73-127.42c-7-13-5.21-20.19,7-31.76Q583.88,703.43,699.09,594.31c4.51-4.27,9.09-8.45,14.45-13.43-15.9-19.83-31.19-38.87-46.45-57.94-15-18.78-12.06-31.09,9.84-40.44,36.63-15.64,71.84-9.49,105.67,8.26,13.93,7.31,26.57,17,40,25.26,4.41,2.69,9.63,5.88,14.43,5.79,103.7-1.84,184.39,43.46,248.63,121.63,57.13,69.52,91.3,150.35,112.78,236.9,17,68.3,25.33,137.55,17.56,207.95-1.91,17.29-6.41,34.28-9.48,51.44-2.31,12.91-9.94,19.38-22.81,20.81-23.65,2.62-42.16,14.84-57.16,32.54-24.81,29.28-24.94,66-1,96,12.92,16.23,27.16,28.92,50.42,24.59,8.06-1.49,16.62-.28,25-.22,27.57.19,44.25,16.62,44.63,44.34.28,20.4.12,40.81.18,61.22a29.69,29.69,0,0,0,.66,3.69c3.26.22,6.83.65,10.41.67,19.15.08,38.32-.29,57.47.17,27.44.64,48.27,21,49,48.28q.89,31.85,0,63.72c-.82,27.31-22,47.74-49.31,47.75q-424.84.12-849.69,0c-23,0-41.73-14.75-47.77-36.74-.76-2.76-1.74-5.46-2.62-8.19Zm674.51-155.58c-6.65-19.48-16.64-38.42-19.23-58.32-6.88-53,26.39-105.93,79.61-125,19.23-6.88,25.77-17.19,26.72-35,.14-2.49.43-5,.7-7.46,7.74-72.25-1.57-143-20.47-212.54-22.07-81.21-55.9-156.82-113.08-220s-127.46-97.49-214.63-92.26c-6.62.4-14.09-3.92-20.28-7.55-18.93-11.13-36.78-24.3-56.36-34.06-11-5.5-24.61-5.85-39.16-9,1.7,4.81,1.79,5.71,2.26,6.3q16.71,21,33.51,42c17.28,21.67,16.89,26.85-3.06,45.76Q628,716.65,510.86,827.38c-6.57,6.19-7.88,10.67-3.1,18.82,11.56,19.73,21.94,40.15,32.8,60.28,5.84,10.81,11.7,21.61,17.77,32.81l61.33-30.46c-1.46-4.78-2.35-8-3.39-11.06-8.31-25.08,2.33-45.71,28.39-51.28,12.34-2.64,25.61-2.2,38.35-1.44,19.08,1.14,38,4.82,57.11,5.54,19.46.73,35.3-6.34,45.33-25.05,3.16-5.89,11.95-12.42,17.92-12.19,6.67.26,15,6.55,19.14,12.57,7.29,10.47,12,22.72,17.76,34.27,15.15,30.64,12.81,60.31-5.18,89-4.19,6.7-8,13.81-13.17,19.7-26.59,30.36-54.09,59.93-80.21,90.67-18.8,22.12-38.55,44.09-53.28,68.86-33.76,56.75-43.32,118.68-31.48,184.38ZM889.31,1543.46h45q186.07,0,372.16,0c15.65,0,17-1.43,17.09-17.19,0-16.24-.23-32.48.09-48.7.2-10-4-14.24-14.14-14.24q-420.24.17-840.49,0c-10.31,0-14.24,4.6-14.13,14.35.17,15.4,0,30.81,0,46.21,0,18.88.74,19.59,19.79,19.59Zm-315.4-120.78h630.81v-68.33H573.91Z"/><path class="cls-2" d="M1366.12,303.8c3.87,1.3,7.74,2.65,11.63,3.91a77.37,77.37,0,0,1,52.86,86.81c-6.4,37.27-39.83,64.8-77.74,64a76.94,76.94,0,0,1-74.75-67.23c-4.84-38.73,18.72-74.28,56.07-84.64,3.16-.88,6.29-1.92,9.43-2.88Zm25.35,77.75a37.16,37.16,0,0,0-37-37.56c-20.28,0-37.43,17.41-37.18,37.67.24,19.88,16.85,36.62,36.66,37C1374.38,419,1391.36,402.21,1391.47,381.55Z"/><path class="cls-2" d="M1533.71,878.4h-61.3q-55.58,0-111.15,0c-20.16,0-26.92-6.75-27-27.08q-.11-108.63,0-217.28V620.55l-2.53-1.31q-16.15,19.93-32.33,39.86c-12.88,15.79-23.84,19.42-34.31,11.45-10.92-8.3-9.82-20.12,3.52-36.69q32.88-40.83,65.87-81.6c13.77-17,25.9-17.19,39.46-.52q34.66,42.62,69.16,85.37a65.31,65.31,0,0,1,4.55,5.94c6,9.46,4.67,20.37-3.28,27-8.24,6.87-20.34,6.23-28-2.58-11.17-12.89-21.59-26.42-32.37-39.64-2.48-3-5.14-5.91-9-10.31v221h14.23q79.31,0,158.6,0c19.16,0,25.76,6.39,25.77,25.14q.09,114.89,0,229.77c0,17-7.15,25.71-20.42,25.39-12.66-.31-19.52-9-19.53-25.21q-.09-99.9,0-199.81Z"/><path class="cls-2" d="M1631,1276.65a77.35,77.35,0,0,1-77.4,76.72c-42.27-.09-77.08-34.89-77.17-77.13-.08-42.62,35.56-77.91,78.2-77.43A77.47,77.47,0,0,1,1631,1276.65Zm-77.47,36.73c20.37.15,37.48-16.88,37.47-37.29s-17.38-37.52-37.57-37.27c-19.68.24-36.64,17.09-37,36.75C1516.07,1295.67,1533.3,1313.22,1553.54,1313.38Z"/><path class="cls-2" d="M1045.47,440.84c-13-12-24.8-22.44-36.06-33.41-11.63-11.33-12.8-22.56-4.09-31.63,9.11-9.48,20.59-8.36,32.54,3.71,10.8,10.91,21.2,22.21,34.21,35.89,12.91-13.79,24.16-26.39,36-38.34,9.22-9.26,19.33-9.91,27.94-3,9.78,7.85,10.45,20.51.58,30.53-11.91,12.09-24.59,23.42-38.91,36.95,14.29,13.47,27.07,24.68,38.86,36.86,12.1,12.49,7.69,31.62-8.22,34-6.55,1-14.85-3.28-20.93-7.31-6.8-4.5-12-11.39-17.86-17.34-5.51-5.64-10.9-11.41-18.55-19.44-12.4,13.12-23.93,25.49-35.65,37.67-7.42,7.72-16.12,10.31-25.89,4.6-11.56-6.77-13.13-21.36-2.89-32C1018.39,466.42,1030.91,454.93,1045.47,440.84Z"/><path class="cls-2" d="M1622.36,596.89c12.48-12.81,23.64-24.53,35.11-35.95,10.89-10.85,21.77-11.88,30.73-3.39,8.54,8.09,7.56,21.44-2.89,31.89-11.16,11.16-22.73,21.92-35.54,34.22,12.65,12.42,24.21,23.55,35.52,34.93,10.51,10.59,11.53,23.6,2.85,31.83-8.94,8.48-19.8,7.47-30.67-3.39-11.44-11.41-22.53-23.17-35.1-36.14-12.6,13.15-23.6,25.06-35.08,36.5-10.69,10.66-22,11.4-30.73,2.75-8.53-8.44-7.77-20.47,2.49-30.75,11.46-11.46,23.28-22.56,36.54-35.36-12.07-11.66-23.19-22.17-34.06-32.93-12.52-12.4-14.12-24.4-4.8-33.41s20.17-7.57,32.51,4.88C1600.05,573.48,1610.58,584.66,1622.36,596.89Z"/><path class="cls-2" d="M1122.51,1018c0,9.57.24,19.15,0,28.72-.43,14.32-7.68,22.3-19.78,22.34s-19.57-7.92-19.73-22.21c-.53-46.72-3.87-93.13-14.11-138.84-19.13-85.4-53.74-162.84-119.8-222.62-17.95-16.25-39.71-28.5-60.52-41.31-13.4-8.25-18.79-17.62-13-29.1,5.41-10.65,16.39-13.45,30-7,58.38,27.55,101.35,72,135.59,125.5,45.79,71.56,68.58,150.9,77.54,234.71.89,8.28,1.83,16.57,2.2,24.87s.09,16.64.09,25Z"/></svg>