<svg id="Шар_1" data-name="Шар 1" xmlns="http://www.w3.org/2000/svg" viewBox="0 0 2000 2000"><defs><style>.cls-1{fill:#f1e7ff;}.cls-2{fill:#8127fb;}</style></defs><path class="cls-1" d="M200,1085.17q2.34-8.73,5.36-17.32c11.39-32.38,29.69-62,40.78-94.5,26.41-77.35,9.91-160,.26-238.72-8.5-69.38,10.54-138.74,47.42-200.11,33.47-55.71,85.81-101.93,148.58-118.77,42.91-11.51,89.12-9.22,130.62-25.07C606.13,378,633.89,354.73,664.6,337c94.28-54.34,165.51-3.12,258.82,20.79,146.6,37.55,306.18-27.34,451.19,15.95,95,28.37,172.9,102.2,217.58,190.73,20.18,40,34,83,42.46,126.9,7.47,38.85,0,88.12,13.14,124.68,20.66,57.39,94.55,94.46,125.27,151,47.57,87.53,47.93,199,.93,286.83a300,300,0,0,1-76,91.19c-23.22,18.77-51.59,27.93-67.12,52.25-21.51,33.72-28.43,80.68-49.79,116.51a470.46,470.46,0,0,1-67,87.36c-19.7,20.23-41.4,38.81-66,52.58-41.83,23.37-90.51,32-138.41,33.12a488.44,488.44,0,0,1-154.36-21.19c-72-22-141.11-61.07-216.35-59.82-27.06.44-53.71,6.17-80.37,10.84-102.51,18-209,20.26-309.86-5.29-58.2-14.74-138.2-42-185.43-80.54-62.18-50.82-108-141.53-137.47-214.46C196.27,1243.25,179.64,1160.79,200,1085.17Z"/><path class="cls-2" d="M1635.36,977.25a18.8,18.8,0,0,0-2.81-6.19,17.2,17.2,0,0,0-3.53-3.65,26.94,26.94,0,0,0-7-3.74,75.59,75.59,0,0,0-9.13-2.63A112.57,112.57,0,0,0,1587.1,958a97.73,97.73,0,0,0-42.23,9.52c-13.09,6.18-25.15,15.17-36.34,26.42a30.26,30.26,0,0,0-2.71,3.12L1495.3,888.15a113.16,113.16,0,0,0,30-7.54,89.9,89.9,0,0,0,35.81-26.5c9.49-11.6,16.53-25.76,21.38-42.1a180.3,180.3,0,0,0,7.46-51.58c0-30-7.19-59.39-18.55-88.12a21.12,21.12,0,0,0-3.49-5.95,18,18,0,0,0-7.74-5.34,26.31,26.31,0,0,0-9-1.4c-1.26,0-2.53.06-3.8.17-19.74,1.7-36.71,7.86-50.85,18s-25.41,24.12-34.11,41.23c-4.36,8.6-7.58,17.53-10.83,26.39-9.78-21.54-19.63-42.81-28.65-64.34a48,48,0,0,1-3.77-17.84,31.52,31.52,0,0,1,.17-3.41,157.32,157.32,0,0,0,.9-16.71,155.06,155.06,0,0,0-9.6-53.49c-11.59-31.85-33-58.94-59.16-78.11S1294.16,481,1263,481a127.14,127.14,0,0,0-14.58.84,52.47,52.47,0,0,0-9.37,1.86,24.71,24.71,0,0,0-5.69,2.53,17,17,0,0,0-3.49,2.82,15.63,15.63,0,0,0-3.41,5.72,21.15,21.15,0,0,0-1,6.81,46.36,46.36,0,0,0,1.51,10.74c10.07,41.51,27.27,77.18,52.09,106.44s57.17,52.06,97.28,68a20.19,20.19,0,0,1,5.65,3.6,18.23,18.23,0,0,1,2.32,2.46,10.92,10.92,0,0,1,1.43,2.36c16.63,39,32.61,78.24,48.63,117.52a24.72,24.72,0,0,1,1,3.21,114.92,114.92,0,0,0-28-14.37,98.63,98.63,0,0,0-32.29-5.41c-18.77,0-37.67,5.21-56.58,14.57-3.29,1.63-6.14,3.13-8.63,4.63a43.65,43.65,0,0,0-5,3.44,23.49,23.49,0,0,0-3,2.87,16.62,16.62,0,0,0-3.11,5.16,16.92,16.92,0,0,0-1,6,32.74,32.74,0,0,0,1.45,8.9c.91,3.19,2.18,6.7,3.76,10.75,1.66,4.25,3.4,8.61,5.54,12.88,10.7,21.39,23.51,40.94,39.91,56.68a130.42,130.42,0,0,0,61.1,33.49c11.8,2.81,23.87,3,35.88,3h8.3c3.41,0,6.8,0,10.18.11,1.24,16.07,2.13,32.39,2.13,49a359.77,359.77,0,0,1-5.36,64.15c-10.49-17.21-24-30.75-39.76-40.09a109,109,0,0,0-56.06-15,129.25,129.25,0,0,0-22.42,2,48.79,48.79,0,0,0-9.67,2.54,20.72,20.72,0,0,0-5.7,3.33,16.22,16.22,0,0,0-3.22,3.69,20.27,20.27,0,0,0-2.64,7,44.72,44.72,0,0,0-.68,8.52v1c.15,12.81.52,25.89,2.39,38.85,5.13,35.5,19.47,64.6,39.25,85.65s44.74,33.93,71.27,37.31c-6.8,19.3-13.64,38.35-21.71,56.65a296.92,296.92,0,0,1-24.88,46.07c-3.25-17.61-9.57-33-19-46.13-11.46-15.91-27.46-28.31-47.67-37.33-6.8-3-12.59-5.45-17.72-7.15a45.13,45.13,0,0,0-13.83-2.69,21.66,21.66,0,0,0-5.18.59,18.89,18.89,0,0,0-7.92,4.09,27.76,27.76,0,0,0-4.64,5.29,62.24,62.24,0,0,0-5.71,11c-1.8,4.3-3.57,9.29-5.5,15.07a188.43,188.43,0,0,0-9.84,59.17c0,22.5,4.45,44.53,14,64.19a120.45,120.45,0,0,0,42,48,62.74,62.74,0,0,1-5.47,5.63q-31.29,27.14-62.77,54.05a30.63,30.63,0,0,0-6.38,7.23,19,19,0,0,0-2,4.3,16.18,16.18,0,0,0-.73,4.78,16.72,16.72,0,0,0,1.09,5.85,22.17,22.17,0,0,0,3.17,5.62,21.13,21.13,0,0,0,6.73,6,16.79,16.79,0,0,0,8,2,20.29,20.29,0,0,0,6.88-1.27,30.76,30.76,0,0,0,6.46-3.29c1.58-1,2.94-2.11,4.2-3a514.27,514.27,0,0,0,90.93-85.26c7.33-8.73,14.42-17.57,21.48-26.25a164.88,164.88,0,0,0,31.46,14.74,104.18,104.18,0,0,0,33.26,5.71,96.09,96.09,0,0,0,39.19-8.55c12.89-5.68,25.68-14.14,38.71-25.31,28.17-24.13,47.59-54.47,61.66-88.18a25.75,25.75,0,0,0,2.17-9.91,19.35,19.35,0,0,0-2.48-9.51,27.86,27.86,0,0,0-6.67-7.73,110.59,110.59,0,0,0-28.76-17.62,85.58,85.58,0,0,0-32.51-6.46,88.61,88.61,0,0,0-12.16.85,213.32,213.32,0,0,0-27,5.93c-5.91,1.63-11.67,3.33-17.29,4.91l32.42-102.83a4.43,4.43,0,0,1,.64.08,119.78,119.78,0,0,0,25,2.77,92.09,92.09,0,0,0,50.17-14.35c14.65-9.27,27.18-22.64,38-39.12a191.18,191.18,0,0,0,24.44-54.76,260.87,260.87,0,0,0,8.58-59.08c0-1.35.08-2.64.08-3.88A40.9,40.9,0,0,0,1635.36,977.25Zm-182-59.61a61.49,61.49,0,0,1-17.11,2.39,77,77,0,0,1-28.46-5.78c-14.2-5.68-28-15.39-39.75-28.22a131.51,131.51,0,0,1-26.15-43c11.17-5.05,22.05-7.72,32.75-7.72a66.84,66.84,0,0,1,32,8.39,73.48,73.48,0,0,1,17.6,13.74,114.31,114.31,0,0,1,21,30.76C1449.87,898.28,1452.78,908.58,1453.34,917.64Zm143.6,80.87c-1.57,18.3-4.59,36-10.31,52.43a130.83,130.83,0,0,1-29,48.27,67.44,67.44,0,0,1-20.38,15,54.2,54.2,0,0,1-23.08,5,69.63,69.63,0,0,1-18.16-2.56,140.81,140.81,0,0,1,8-42.53c7.67-21.88,20.26-41.37,34.89-55.21a90.14,90.14,0,0,1,23-16.2,55.2,55.2,0,0,1,23.65-5.75A43,43,0,0,1,1596.94,998.51ZM1540.47,700.8c6.37,20.83,10.82,41.43,10.81,61.63a121.06,121.06,0,0,1-3.56,29.75,114.63,114.63,0,0,1-11.94,29.36,57,57,0,0,1-9.67,12.6,51.14,51.14,0,0,1-18.94,11.67,71,71,0,0,1-21.68,3.77,223.69,223.69,0,0,1-4.4-42.66c0-23.1,4.28-45.32,14.22-67.07,5.42-11.85,12-20.7,20-27.15a57.15,57.15,0,0,1,13.21-8A68.75,68.75,0,0,1,1540.47,700.8Zm-159.53-55.48a58.26,58.26,0,0,1-9.43-4c-9.41-4.9-20.34-13-31.35-22.86a319.65,319.65,0,0,1-46.42-52.5,205,205,0,0,1-16.32-27.16,94.46,94.46,0,0,1-6.71-17.52,100.1,100.1,0,0,1,38,10.07c20.32,9.76,38.54,25.9,51.59,45a126.19,126.19,0,0,1,15.35,30.5,100.89,100.89,0,0,1,5.55,32.33C1381.16,641.24,1381.09,643.29,1380.94,645.32Zm56.83,522a88.49,88.49,0,0,1-29.1-11.36c-15-9.2-27.24-22.85-35.73-39.79s-13.24-37.14-13.24-59.34c0,0,0-.11,0-.16,2.68-.24,5.32-.37,7.91-.37a67.65,67.65,0,0,1,25.92,4.83,63.69,63.69,0,0,1,22.16,15.42,83.2,83.2,0,0,1,18.74,30.55c3.72,10.82,5.23,22.31,5.23,34.41A196,196,0,0,1,1437.77,1167.31Zm-37.26,199.42c13.35-25.91,31.66-45.85,51.06-59.38a127.83,127.83,0,0,1,30.49-15.87,87.74,87.74,0,0,1,28.73-5.29,55,55,0,0,1,18.21,2.89,39.48,39.48,0,0,1,11.55,6.31c-10.47,19.86-21.87,38.42-36.31,53.21a114.55,114.55,0,0,1-25.69,20,109.57,109.57,0,0,1-32.94,12,46.78,46.78,0,0,1-9.16.9,49.52,49.52,0,0,1-20.28-4.44A59.33,59.33,0,0,1,1400.51,1366.73Zm-73.62,21.88a44.18,44.18,0,0,1-13.63-9.27c-7.48-7.33-13.6-17.71-17.79-29.89a125.14,125.14,0,0,1-6.48-40.39,126.94,126.94,0,0,1,9.79-49.52c15.63,5.25,27.62,14.18,35.94,25.45,9,12.17,13.69,27.11,13.69,43.26C1348.41,1347.68,1341.53,1368.84,1326.89,1388.61Z"/><path class="cls-2" d="M770.47,489.05a19.36,19.36,0,0,0-7.27-4.72,39.49,39.49,0,0,0-9.55-2.24,127.94,127.94,0,0,0-16-1,144.07,144.07,0,0,0-59,13.09,173.76,173.76,0,0,0-70.1,58.39c-17.67,25.22-28.48,55.1-28.48,86.09q0,5.93.53,11.88c.25,2.75.38,5.4.38,8a70.45,70.45,0,0,1-2,16.86,76.05,76.05,0,0,1-6.13,16.29c-8.76,17.41-16.19,35.34-24.1,53.71-.86-2.9-1.75-5.71-2.81-8.52a161,161,0,0,0-13.9-28.56c-8.16-13-18.27-24.07-30.83-32.33s-27.49-13.72-45.06-15.77a66.94,66.94,0,0,0-7.71-.53,25.38,25.38,0,0,0-7.57,1,16.56,16.56,0,0,0-4.93,2.48,17.88,17.88,0,0,0-3,2.86,29.07,29.07,0,0,0-3.58,5.53,72.12,72.12,0,0,0-3.08,7.06,233,233,0,0,0-16.06,84.32q0,6,.32,12.09a150.24,150.24,0,0,0,8.14,42.82C425.57,837.07,436.76,853,452,865c14.29,11.28,32.06,19.14,53,23.52-3.53,36.45-7,72.27-10.42,107.71l-5.73-5.41c-11.07-10.45-22.88-18.66-35.53-24.25A98.82,98.82,0,0,0,412.93,958a115.15,115.15,0,0,0-28.38,3.7,40,40,0,0,0-8.36,3.06,26.1,26.1,0,0,0-5.23,3.5,20.64,20.64,0,0,0-5.5,7.58,25.23,25.23,0,0,0-1.85,9.87,37.49,37.49,0,0,0,.2,3.76c1,10,1.09,20.39,2.59,31,2.67,18.78,7,37,14,54.23a155,155,0,0,0,30.16,47.73c10.5,11.27,22,20.28,34.62,26.47a92.19,92.19,0,0,0,41.12,9.53,108.38,108.38,0,0,0,22.16-2.37h0a10,10,0,0,1,1.95-.17l.56,0c10.93,34.84,21.66,69,32.5,103.5-3.87-1.7-7.74-3.35-11.78-4.79-14.21-5-28.21-7.79-41.91-7.79a94.83,94.83,0,0,0-32.91,5.76,106,106,0,0,0-30.91,18,31.4,31.4,0,0,0-6.82,7.42,19.8,19.8,0,0,0-2.14,4.64,17.9,17.9,0,0,0-.78,5.26,22.28,22.28,0,0,0,1.79,8.44c8.52,20.78,19,40.21,32.08,57.64a194.7,194.7,0,0,0,48.07,45.58,138.4,138.4,0,0,0,31.34,15.93,91.57,91.57,0,0,0,62.62-.3A137.35,137.35,0,0,0,622,1399.84c16.51,18.78,32.15,38.39,50.17,56,20.86,20.31,43.63,38.39,65.55,57a29,29,0,0,0,6.89,4.45,19,19,0,0,0,7.74,1.74,16.85,16.85,0,0,0,7.84-2,23.47,23.47,0,0,0,6.86-5.63,21.63,21.63,0,0,0,3.56-5.64,15.94,15.94,0,0,0,1.29-6.26,16.39,16.39,0,0,0-.77-4.9,21.53,21.53,0,0,0-3.71-6.74,37.84,37.84,0,0,0-6.17-6.07c-2.55-2-5.15-3.88-7.63-5.68s-4.84-3.56-7-5.44c-17.66-15.51-35.16-31.2-51.31-45.58,5.62-5.89,11.31-11.32,16.68-16.81,6.39-6.53,12.34-13.17,17-20.84,15.33-25.09,22-50.74,22-76.33,0-28.24-8.06-56.34-21.14-84a11.88,11.88,0,0,0-1.56-2.41,18.62,18.62,0,0,0-3.55-3.26,28.51,28.51,0,0,0-6.5-3.45,24.53,24.53,0,0,0-3.5-1,17.27,17.27,0,0,0-3.6-.41,11.3,11.3,0,0,0-2.36.23c-21.95,4.44-42.51,13.6-58.93,27.61a101.12,101.12,0,0,0-33.7,56.43c-.77,3.56-1.42,7.11-2.11,11.05-21.35-33.72-34.49-68.8-46.3-103.12,7.7-3.21,15.58-6,23.3-9.13,9-3.63,17.83-7.64,25.82-13.22a144,144,0,0,0,30.16-28,140.62,140.62,0,0,0,25.57-50.79c5.1-18.32,7.13-37.79,7.13-57.92q0-6-.24-12.12a18.22,18.22,0,0,0-1.75-7.34,16.49,16.49,0,0,0-3.06-4.34,21.14,21.14,0,0,0-6.31-4.33,36,36,0,0,0-7.34-2.37,117.52,117.52,0,0,0-25.18-2.75,111.22,111.22,0,0,0-55.78,14.85,112.76,112.76,0,0,0-40.38,40c-.31-1.48-.61-3-.89-4.63-1.53-8.69-2.71-19.19-3.51-30.38s-1.21-23.07-1.21-34.58c0-8.89.24-17.56.74-25.5.41-6.38,1-12.29,1.7-17.46,8.45-.29,17.06-.09,25.66-.25,9.86-.19,19.73-.83,29.35-3.37a143.33,143.33,0,0,0,39.79-17c17.52-11,31.58-25.41,43-42.16s20.09-35.79,27-56.16h0a11.38,11.38,0,0,0,.56-3.67,19.38,19.38,0,0,0-.83-5.34,30.35,30.35,0,0,0-3.4-7.53,25.33,25.33,0,0,0-2.4-3.28,17.12,17.12,0,0,0-2.91-2.73A109.16,109.16,0,0,0,628,796.4,112.32,112.32,0,0,0,564.89,816a54.9,54.9,0,0,1,2-6.26c15.41-37.76,30.67-75.55,46.86-112.89a13.82,13.82,0,0,1,1.86-3,24.91,24.91,0,0,1,4.71-4.47,26.14,26.14,0,0,1,5.52-3.16c40-16.31,72.13-39.42,96.68-68.91S764,552,773.79,510.39a38.8,38.8,0,0,0,1.15-8.82,20.08,20.08,0,0,0-1.39-7.71A15.51,15.51,0,0,0,770.47,489.05ZM619.13,639.21c0-13.86,3.49-28.21,9.63-41.94A144,144,0,0,1,671,543.73a116,116,0,0,1,28.14-16.38,79.77,79.77,0,0,1,29.28-6c.47,0,.94,0,1.42,0-1.52,10.2-5.5,21.46-11.44,32.9-10.27,19.82-26.35,40.17-44.87,57a203.37,203.37,0,0,1-29.17,22.25A140.78,140.78,0,0,1,619.43,646Q619.13,642.65,619.13,639.21Zm-114.3,477.23a62.85,62.85,0,0,1-18.2,2.82,53.91,53.91,0,0,1-19.38-3.58A66.87,66.87,0,0,1,449,1104.92,106.36,106.36,0,0,1,418.65,1065c-6.8-15.08-10.81-31.76-13.49-49.24-.87-5.66-1.3-11.56-1.86-17.83a65.78,65.78,0,0,1,10.8-.91,56.82,56.82,0,0,1,20.14,3.61,68.32,68.32,0,0,1,18.21,10.41A126.61,126.61,0,0,1,486,1050.32c8.16,14.84,13.5,31.38,16.51,49.34.92,5.51,1.66,11.09,2.34,16.7Zm-44.77-416.1a70.37,70.37,0,0,1,15.87,6.23A62.59,62.59,0,0,1,496.68,725a96.22,96.22,0,0,1,13,26.24,178.3,178.3,0,0,1,8.94,57.17,255.24,255.24,0,0,1-3.55,41h-.8a55.07,55.07,0,0,1-20.7-3.9,63.55,63.55,0,0,1-18.07-11.26,64.41,64.41,0,0,1-14.71-18.55,86.55,86.55,0,0,1-8-22.58,155.12,155.12,0,0,1-3.53-32.9C449.18,740.27,453,720.42,460.06,700.34Zm86.87,217.4a83.38,83.38,0,0,1,6.74-30.85,84.84,84.84,0,0,1,30.18-36.56,78.22,78.22,0,0,1,43.8-13.89,71.53,71.53,0,0,1,30.38,6.8,129.46,129.46,0,0,1-36.52,53,107.34,107.34,0,0,1-27.59,17.65,74.6,74.6,0,0,1-29.46,6.46A60,60,0,0,1,546.93,917.74Zm13.64,222.68c0-24.1,7.68-45.18,20.38-60.13a68.3,68.3,0,0,1,22.51-17.53,65.47,65.47,0,0,1,28.43-6.34,73.36,73.36,0,0,1,8.16.47,85.06,85.06,0,0,1,.77,11.4,97.08,97.08,0,0,1-6.36,33.93,111,111,0,0,1-29.55,43.28c-11.95,10.69-26.11,18.41-41.3,21.65A121.67,121.67,0,0,1,560.57,1140.42Zm39.79,226.5a69.22,69.22,0,0,1-17,10.37,53.6,53.6,0,0,1-20.83,4.22,63.88,63.88,0,0,1-22.92-4.53c-20.1-7.7-35.82-19.48-48.93-34.19-12.29-13.79-22.23-30.19-31-48.1A57.5,57.5,0,0,1,473,1288.4a55.1,55.1,0,0,1,16.9-2.57,73.78,73.78,0,0,1,19,2.66,126.09,126.09,0,0,1,43.8,21.22c12.82,9.62,24,21.64,33.81,35.59C591.28,1352.1,595.64,1359.39,600.36,1366.92Zm101.12-107.27c7.1,14.86,10.46,31.77,10.46,48.48,0,18.18-4,36.08-11.19,50.7a77.1,77.1,0,0,1-13,19.13,54.57,54.57,0,0,1-13.92,10.73,105.55,105.55,0,0,1-15.43-27.78,97.78,97.78,0,0,1-6.29-33.83,78.2,78.2,0,0,1,3-22,64.25,64.25,0,0,1,16.68-28.1C679.24,1269.71,689,1263.7,701.48,1259.65Z"/><polygon class="cls-2" points="982.13 1153.29 982.13 1153.28 982.13 1153.28 982.13 1153.29"/><polygon class="cls-2" points="887.23 864.7 887.23 864.7 887.24 864.7 887.23 864.7"/><polygon class="cls-2" points="1113.72 865.38 1113.72 865.38 1113.72 865.38 1113.72 865.38"/><path class="cls-2" d="M1197.12,759.27a70.16,70.16,0,0,0-23.5-16.06,78.37,78.37,0,0,0-29.81-5.92q-72-.57-144-.57-71.67,0-143.36.56a78.41,78.41,0,0,0-29.82,5.91,70,70,0,0,0-32.3,27.2c-7.69,12.11-12,26.83-12,43q-.18,63.18-.16,126.37,0,74.26.12,148.53a55.3,55.3,0,0,0,3.32,19.51,42.28,42.28,0,0,0,6.72,11.82,41.28,41.28,0,0,0,16.15,12,57.12,57.12,0,0,0,21.89,4.22c5,0,9.94,0,15,0l21.64,0v11.74q0,82.11,0,164.21,0,60.92,0,121.83a81,81,0,0,0,4.13,26.73,54,54,0,0,0,8.56,15.8A51.08,51.08,0,0,0,901,1491.8c8.59,3.48,18.56,5.21,29.77,5.23q29.57,0,59.13,0,38.55,0,77.09,0c10.76,0,20.29-1.29,28.61-4a54.85,54.85,0,0,0,16.55-8.54,49.58,49.58,0,0,0,16-21.85c3.47-9,5.11-19.44,5.11-31.48q0-60.12,0-120.23,0-76.41,0-152.83v-22.3c7.76,0,15.11,0,22.3,0,5.24,0,10.4,0,15.56-.09a55.13,55.13,0,0,0,19.14-3.49,43.06,43.06,0,0,0,11.67-6.69,41.15,41.15,0,0,0,11.93-15.89,54,54,0,0,0,4.13-21.41q.09-74.08.11-148.17,0-63.36-.14-126.73C1217.88,791.92,1210.27,772.91,1197.12,759.27Zm-63.9,337.32v-19.38q0-29.3,0-58.58,0-62.29,0-124.58c0-.88.08-2,.18-3.24s.2-2.58.2-4a17.57,17.57,0,0,0-.34-3.66,10,10,0,0,0-1.78-4,61.86,61.86,0,0,0-7.34-8.22,28.45,28.45,0,0,0-4.7-3.48,16.45,16.45,0,0,0-5.7-2.1,18.53,18.53,0,0,0-2.66-.2,15.68,15.68,0,0,0-6.68,1.47,16.4,16.4,0,0,0-7.19,6.77,22.57,22.57,0,0,0-2.82,10c-.14,2.52-.16,5-.16,7.45,0,1.75,0,3.48,0,5.18q0,266.93,0,533.86a69,69,0,0,1-1.27,15.22,17.37,17.37,0,0,1-2.64,6.35,10.81,10.81,0,0,1-3,2.83,21.47,21.47,0,0,1-8,2.73,83.61,83.61,0,0,1-13.62.89h-46.08V1340.56q0-86.85,0-173.68c0-.78.09-1.86.21-3.05s.24-2.53.24-3.95a14.08,14.08,0,0,0-.32-3.19,8.7,8.7,0,0,0-1.65-3.56,74.84,74.84,0,0,0-7.28-8.23,25.24,25.24,0,0,0-4.67-3.53,14.94,14.94,0,0,0-2.79-1.23,10.87,10.87,0,0,0-2.91-.5l-.33,0H1000a11,11,0,0,0-3.14.5,16.79,16.79,0,0,0-4.65,2.4,35.27,35.27,0,0,0-5.64,5.2c-1.69,1.88-3.2,3.83-4.47,5.55a9.61,9.61,0,0,0-1.62,3.71,15.86,15.86,0,0,0-.33,3.41c0,1.53.14,3,.27,4.3s.23,2.52.22,3.42q0,99.54,0,199.07v89.44c-11,.07-21.88.34-32.55.34-10.24,0-20.32-.26-30.26-1.21a1.58,1.58,0,0,1-.51-.19,9.19,9.19,0,0,1-2.37-2,44.17,44.17,0,0,1-4.58-6.34c-1.54-2.49-3-5.13-4.4-7.49a2.73,2.73,0,0,1-.3-.89,10.29,10.29,0,0,1-.14-1.86c0-1.08.11-2.38.23-3.79s.26-2.94.26-4.55q0-266.92,0-533.85a76.69,76.69,0,0,0-.84-12.36,31.67,31.67,0,0,0-2-7.26,18.89,18.89,0,0,0-2.6-4.45,15.28,15.28,0,0,0-5.93-4.55,20.11,20.11,0,0,0-7.4-1.51h-.72a20.7,20.7,0,0,0-4.62.5,15.89,15.89,0,0,0-7,3.58,17.91,17.91,0,0,0-3.76,4.76A30.49,30.49,0,0,0,868,883a70.61,70.61,0,0,0-.93,12.27v201.28c-6.75,0-13.36.15-19.86.15-7.07,0-14-.13-20.87-.6a5.65,5.65,0,0,1-.78-.71,22.6,22.6,0,0,1-2.31-3.11c-.79-1.24-1.55-2.58-2.23-3.8a4,4,0,0,1-.08-.89c0-.58.07-1.38.16-2.3s.19-2,.19-3.15q0-75.62,0-151.23,0-56.31,0-112.6A62.39,62.39,0,0,1,823.9,799a33.35,33.35,0,0,1,5.24-10.14,29.71,29.71,0,0,1,13.29-9.53c5.69-2.17,12.8-3.33,21.39-3.33q67.88,0,135.74,0,68.37,0,136.76,0a63.59,63.59,0,0,1,19.46,2.65,33.53,33.53,0,0,1,10.25,5.24,29.57,29.57,0,0,1,9.63,13.19c2.19,5.63,3.35,12.66,3.36,21.13q0,60.22,0,120.45,0,72.31,0,144.62a56.5,56.5,0,0,1-.48,8.81,12.23,12.23,0,0,1-.43,1.74,4.28,4.28,0,0,1-.4.87,2.14,2.14,0,0,1-.68.72,5.19,5.19,0,0,1-1.13.51,17.93,17.93,0,0,1-3.71.63c-1.66.14-3.73.2-6.19.2h-3.56C1152.72,1096.8,1143,1096.69,1133.22,1096.59Z"/><polygon class="cls-2" points="884.33 618 884.33 618 884.33 617.99 884.33 618"/><path class="cls-2" d="M918.17,700.07a115.39,115.39,0,0,0,81.25,34.29h.61a116.4,116.4,0,0,0,115.9-115h0v-.83a115,115,0,0,0-33.82-81.18,116.21,116.21,0,0,0-81.31-34.43h-1.09A116.48,116.48,0,0,0,884.33,618v.69A115.37,115.37,0,0,0,918.17,700.07Zm27.52-27.65a76.43,76.43,0,0,1-22.37-53.71v-.59a76.64,76.64,0,0,1,22.87-53.7A78.13,78.13,0,0,1,970.52,548a74.9,74.9,0,0,1,29.38-6h.46a77.08,77.08,0,0,1,54,22.82,78.21,78.21,0,0,1,16.52,24.28,74.06,74.06,0,0,1,6.06,29.29c0,.49,0,1,0,1.46a77.47,77.47,0,0,1-76.85,75.59h-.83A76.51,76.51,0,0,1,945.69,672.42Z"/></svg>