<svg id="Шар_1" data-name="Шар 1" xmlns="http://www.w3.org/2000/svg" viewBox="0 0 2000 2000"><defs><style>.cls-1{fill:#f1e7ff;}.cls-2{fill:#8127fb;}</style></defs><path class="cls-1" d="M653.23,342.71C420.16,404.9,224.72,624.54,217.38,885.35c-4.61,163.89,55.59,325.23,149,456.39C410,1402.89,467,1461.49,534.05,1497.52c77.77,41.77,160.1,35.57,242.49,57.74,73.66,19.83,139,64.82,210.87,90.8,88.68,32,185,34.17,278.06,22,148.71-19.5,303.43-83.83,381.68-218.41,41.84-71.95,57.75-156.74,75.38-239,28.22-131.8,62.84-264.13,60.2-399.21s-49.14-277-153.13-356.12c-81.72-62.18-187.77-77.84-288.5-73.37-85.09,3.78-170.56,20.45-254.86,7.74-66.69-10.05-129.73-38.12-195.62-52.92C811,318.81,730.07,322.2,653.23,342.71Z"/><path class="cls-2" d="M1696,931.48,1497.54,546.41a22.17,22.17,0,0,0-29.71-9.64l-170.3,86a22.08,22.08,0,0,0-11.08,12.89l-154.92.23c-16-12.58-32.23-25.06-48.72-37.24-31.76-23.44-67.79-41.25-105.65-53.25a388.83,388.83,0,0,0-116.82-18.19q-9.48,0-18.91.49a322.31,322.31,0,0,0-104,23,277.58,277.58,0,0,0-48.26,25.28,237.71,237.71,0,0,0-31,24.3l-164-64.73A22.17,22.17,0,0,0,465.47,548L303.17,949.61a22.17,22.17,0,0,0,12.6,29L480,1041.77a99.28,99.28,0,0,0-7.71,38,92.79,92.79,0,0,0,2.39,21,90.82,90.82,0,0,0,7.42,20.45,58.73,58.73,0,0,0,13.77,17.64,70.25,70.25,0,0,0,12.73,8.86,88.07,88.07,0,0,0,20.16,7.84,102.15,102.15,0,0,0,19.78,3.07q3.62.21,7.14.2c2.2,0,4.35-.08,6.49-.2a110.67,110.67,0,0,0-2,21.08,101,101,0,0,0,1.39,16.88,83.45,83.45,0,0,0,8.08,24.64,70.12,70.12,0,0,0,7.35,11.34,64.83,64.83,0,0,0,9.87,9.94,89.24,89.24,0,0,0,30.06,15.73,109.33,109.33,0,0,0,31.84,4.61c3.11,0,6.19-.13,9.24-.36,3.68-.28,7.28-.69,10.84-1.17q-1.17,3.94-2,8a115.45,115.45,0,0,0-2.24,23.34c0,3.85.16,7.74.44,11.69a74.69,74.69,0,0,0,3.11,16.77,64.92,64.92,0,0,0,21,31.28,74.4,74.4,0,0,0,14.29,9.15,93.94,93.94,0,0,0,23.27,7.71,124.08,124.08,0,0,0,23.92,2.24q6,0,12-.52a77.28,77.28,0,0,0,1.41,41.36,93.94,93.94,0,0,0,10.72,22.74,82.42,82.42,0,0,0,15,17.54,76.81,76.81,0,0,0,13.42,9.46,81.73,81.73,0,0,0,21.9,8.27,101.13,101.13,0,0,0,22.28,2.38,151.07,151.07,0,0,0,40.81-6.18A233.77,233.77,0,0,0,923.72,1453c7.66-3.62,22.67-10.68,41.2-19.38l94.42-44.31,41.13-19.3,9.79-4.6,18.78,18.78a72.72,72.72,0,0,0,24.22,16,73.66,73.66,0,0,0,55,0,72.76,72.76,0,0,0,24.23-16l3.84-3.84-15.68-15.67,15.68,15.67a72.49,72.49,0,0,0,20.4-40,73.32,73.32,0,0,0,40.49-4.16,72.76,72.76,0,0,0,24.23-16l3.84-3.84-15.68-15.68,15.68,15.68a72.79,72.79,0,0,0,21.29-48.73c2.29.19,4.58.3,6.88.3a85.15,85.15,0,0,0,31.89-6.18,84.19,84.19,0,0,0,28.07-18.58h0l4.72-4.72h0a84.19,84.19,0,0,0,18.58-28.07,85.19,85.19,0,0,0,6.18-31.89c0-1.24,0-2.47-.09-3.7.56,0,1.11,0,1.66,0a79.06,79.06,0,0,0,29.55-5.72,78,78,0,0,0,26-17.22l11.31-11.31h0a78,78,0,0,0,17.22-26,79.06,79.06,0,0,0,0-59.1,77.68,77.68,0,0,0-6.66-12.86l164.17-81.14a22.17,22.17,0,0,0,9.89-30ZM713.57,613.07A244.2,244.2,0,0,1,776,584a279.88,279.88,0,0,1,67.68-12c5.51-.28,11.06-.43,16.62-.43a344.43,344.43,0,0,1,103.43,16.12c33.53,10.62,65.23,26.36,92.7,46.66,45.17,33.35,89.1,69.7,134.25,105.1a67.14,67.14,0,0,1,9.21,8.63,45.63,45.63,0,0,1,8.3,13.23,37.21,37.21,0,0,1,2.67,14,50.24,50.24,0,0,1-3.55,17.85,34.67,34.67,0,0,1-6.57,10.65,46.29,46.29,0,0,1-7.88,7,56.38,56.38,0,0,1-15.13,7.54,53,53,0,0,1-16,2.64l-.89,0c-.39-.08-1.25-.29-2.37-.65-1.43-.45-3.29-1.13-5.46-2-4.06-1.63-9.15-3.92-14.84-6.69-10-4.85-21.88-11.16-34.39-18.1-18.77-10.4-39-22.21-56.89-32.82-9-5.3-17.37-10.31-24.78-14.71s-13.82-8.18-18.89-11.09a22.25,22.25,0,0,0-21.91-.09Q887.48,787.62,793.66,840.4c-13.53,7.61-38.41,21.48-68.24,38.33C680.65,904,624.71,936,578.51,964.1c-11.11,6.75-21.66,13.27-31.38,19.43l135.4-345A188.68,188.68,0,0,1,713.57,613.07ZM498.34,585l136.43,53.86L493.28,999.37,352.73,945.31Zm477.71,794.49c-31.68,14.87-59.66,28-71.28,33.5a189.64,189.64,0,0,1-28.76,11c-10,2.84-20,4.51-28.71,4.5a58.94,58.94,0,0,1-11.25-1,41.45,41.45,0,0,1-7.17-2.07,33.06,33.06,0,0,1-9-5.21,37.44,37.44,0,0,1-7.79-8.91,49.77,49.77,0,0,1-5.71-12,33.23,33.23,0,0,1,.26-21.09,46.53,46.53,0,0,1,3.92-8.57,71.75,71.75,0,0,1,10.17-13.26,106.63,106.63,0,0,1,11-10l97.17-54.75c3.25-1.77,6.33-3.46,9.21-5s5.65-3.16,8.12-4.57,4.66-2.69,6.62-3.88a22.17,22.17,0,0,0-22.39-38.27l-23,13c-4.79,2.61-10,5.42-15.39,8.34-15.74,8.49-33.3,17.89-48.33,26.18-7.53,4.15-14.41,8-20.23,11.42q-4.37,2.55-7.91,4.77c-1.18.74-2.3,1.46-3.36,2.17s-2.07,1.4-3.08,2.14c-.61.45-1.21.92-1.81,1.38l-14.58,8.21a59.87,59.87,0,0,1-8.21,3.77,92.61,92.61,0,0,1-16.08,4.37,102,102,0,0,1-17.87,1.62,76.53,76.53,0,0,1-17.55-1.89,46.78,46.78,0,0,1-10.35-3.66,28.64,28.64,0,0,1-5.57-3.6,20.29,20.29,0,0,1-5.29-6.54,23,23,0,0,1-1.68-4.41,31.33,31.33,0,0,1-1-5.9c-.22-3-.33-5.84-.33-8.5a74.05,74.05,0,0,1,1.05-13,49.4,49.4,0,0,1,5.55-15.64,59.68,59.68,0,0,1,5.17-7.71,89.39,89.39,0,0,1,7.47-8.32s.22-.21.61-.53c.76-.64,2.12-1.69,3.87-2.94,3.31-2.35,8-5.41,13.63-8.85,6.47-4,14.14-8.48,22.53-13.28l52.93-29.38,24.71-13.45c10.24-5.58,19.85-10.84,28.23-15.51q6.3-3.51,11.61-6.56t9.46-5.57a22.17,22.17,0,0,0-22.3-38.32l-73.07,40.55c-18.14,9.9-36.82,20.16-53.26,29.56l-14.34,8c-13.39,7.43-26,13.55-38.62,18a150.15,150.15,0,0,1-39.58,8.56c-1.94.15-3.89.22-5.83.22a64.69,64.69,0,0,1-18.88-2.67,44.82,44.82,0,0,1-15.17-7.83,20.78,20.78,0,0,1-4-4.35,32.69,32.69,0,0,1-4.5-10.16,53.83,53.83,0,0,1-1.7-13.78,66.64,66.64,0,0,1,3.77-22,50.88,50.88,0,0,1,4.16-8.94,33.54,33.54,0,0,1,3.65-5l.13-.07c1.25-.79,3.33-2,6-3.53,4.94-2.84,11.86-6.68,20.1-11.17,5-2.73,10.5-5.7,16.37-8.85,58.1-30.42,116.83-60,175.51-90A22.17,22.17,0,0,0,817,989.41c-.74.25-1.31.47-1.87.69-1.1.42-2.12.86-3.26,1.36-2.19,1-4.79,2.18-7.88,3.66-5.78,2.77-13.26,6.46-22,10.87-30.66,15.39-77,39.4-116.5,60.3-9.76,5.17-19.09,10.14-27.67,14.75q-17.09,8.94-34.15,18c-4.91,2.61-9.4,4.92-13.57,6.87a100,100,0,0,1-17.21,6.47,66.94,66.94,0,0,1-17.18,2.16c-1.49,0-3,0-4.64-.13a58.85,58.85,0,0,1-10-1.43,49.79,49.79,0,0,1-7.12-2.21,31.35,31.35,0,0,1-8.13-4.59,17.93,17.93,0,0,1-2.52-2.46,12.4,12.4,0,0,1-1.63-2.47,45.82,45.82,0,0,1-3.79-10.45,48.07,48.07,0,0,1-1.25-11,55.75,55.75,0,0,1,6.13-24.94c.27-.27.63-.63,1.09-1,1.56-1.44,4.08-3.53,7.29-6,6-4.59,14.44-10.44,24.46-17,17.55-11.54,40.06-25.41,64.49-40,36.66-21.9,77.67-45.45,113.41-65.71C751.36,915,767.91,905.68,782,897.8s25.57-14.33,33.44-18.76L992,779.72l5.15,3c11.1,6.59,24.93,14.85,39.73,23.54,11.11,6.52,22.76,13.28,34.28,19.79,8.63,4.89,17.18,9.63,25.38,14,12.31,6.59,23.76,12.38,33.76,16.78,5,2.2,9.66,4,14.16,5.52,2.25.73,4.48,1.37,6.81,1.88a41.82,41.82,0,0,0,7.77,1h0c.9,0,1.8,0,2.71,0a96.49,96.49,0,0,0,26.49-3.81,101.57,101.57,0,0,0,18.75-7.48,94.51,94.51,0,0,0,24.65-18.28,79.66,79.66,0,0,0,17.21-26.91,94.64,94.64,0,0,0,6.43-33.55,82.16,82.16,0,0,0-2.62-20.63,85.29,85.29,0,0,0-13-27.73,106.56,106.56,0,0,0-21.58-22.39q-15.4-12.08-30.8-24.38l114.26-.17,141.16,280.81-47.6-47.6a78.13,78.13,0,0,0-26-17.22,79.06,79.06,0,0,0-59.1,0,78,78,0,0,0-26,17.22l-11.31,11.31a78.09,78.09,0,0,0-21.6,41.06,85.37,85.37,0,0,0-56.62,2.52,84.19,84.19,0,0,0-28.07,18.58h0l-4.72,4.72h0a84.16,84.16,0,0,0-18.58,28.06,85.42,85.42,0,0,0,0,63.8c.81,2,1.73,4,2.71,6-1.83.57-3.64,1.2-5.43,1.93a72.58,72.58,0,0,0-24.23,16l-3.84,3.84a72.76,72.76,0,0,0-16,24.23,73.21,73.21,0,0,0,16,79.24c-.38.14-.75.27-1.12.42a72.61,72.61,0,0,0-24.23,16l-3.84,3.84a72.72,72.72,0,0,0-16,24.22,73.66,73.66,0,0,0,0,55,72.78,72.78,0,0,0,10.37,17.82l-8.11,3.81Zm225.1-26.57a28.36,28.36,0,0,1-9.46,6.27,29.29,29.29,0,0,1-21.83,0,28.4,28.4,0,0,1-9.47-6.27l-26.61-26.61a21.9,21.9,0,0,0-6.16-6.16l-13.17-13.18a28.28,28.28,0,0,1-6.28-9.47,29.39,29.39,0,0,1,0-21.82,28.28,28.28,0,0,1,6.28-9.47l3.84-3.84a28.26,28.26,0,0,1,9.46-6.27,29.29,29.29,0,0,1,21.83,0,28.4,28.4,0,0,1,9.47,6.27l45.94,46a28.34,28.34,0,0,1,6.28,9.46,29.42,29.42,0,0,1,0,21.83A28.28,28.28,0,0,1,1205,1349Zm89-64a28.26,28.26,0,0,1-9.46,6.27,29.29,29.29,0,0,1-21.83,0,28.4,28.4,0,0,1-9.47-6.27l-105.71-105.72a28.28,28.28,0,0,1-6.28-9.47,29.39,29.39,0,0,1,0-21.82,28.28,28.28,0,0,1,6.28-9.47l3.84-3.84a28.34,28.34,0,0,1,9.46-6.28,29.42,29.42,0,0,1,21.83,0,28.28,28.28,0,0,1,9.47,6.28L1294,1244.28a28.28,28.28,0,0,1,6.28,9.47,29.42,29.42,0,0,1,0,21.83,28.28,28.28,0,0,1-6.28,9.47Zm92-77h0a39.71,39.71,0,0,1-13.31,8.82,41,41,0,0,1-30.6,0,39.71,39.71,0,0,1-13.31-8.82L1193,1080a39.71,39.71,0,0,1-8.82-13.31,41,41,0,0,1,0-30.6,39.71,39.71,0,0,1,8.82-13.31h0l4.71-4.72a40,40,0,0,1,13.32-8.82,41.13,41.13,0,0,1,30.59,0,40.15,40.15,0,0,1,13.32,8.82l131.86,131.86a39.87,39.87,0,0,1,8.81,13.32,41,41,0,0,1,0,30.59,39.75,39.75,0,0,1-8.82,13.32ZM1480,1109.27l-11.3,11.31a33.86,33.86,0,0,1-11.26,7.45,34.79,34.79,0,0,1-25.9,0,33.6,33.6,0,0,1-11.25-7.46L1304,1004.3a33.45,33.45,0,0,1-7.46-11.25,34.79,34.79,0,0,1,0-25.9,33.59,33.59,0,0,1,7.46-11.26l11.3-11.31a33.71,33.71,0,0,1,11.26-7.45,34.79,34.79,0,0,1,25.9,0,33.57,33.57,0,0,1,11.25,7.45L1480,1060.86a33.57,33.57,0,0,1,7.45,11.25,34.79,34.79,0,0,1,0,25.9,33.57,33.57,0,0,1-7.45,11.25l15.67,15.68Zm31.24-110.8-174-346.06,130.92-66.14,178,345.48Z"/><circle class="cls-2" cx="447.49" cy="912.38" r="26.85"/><circle class="cls-2" cx="1547.36" cy="912.38" r="26.85"/></svg>