<svg id="Шар_1" data-name="Шар 1" xmlns="http://www.w3.org/2000/svg" viewBox="0 0 2000 2000"><defs><style>.cls-1{fill:#f1e7ff;}.cls-2{fill:#8127fb;}</style></defs><path class="cls-1" d="M1630.3,1300.53c38-79.62,57-199.54,43.8-287.16-6.66-44.12-19.73-94.25-32.28-136.65-11.9-40.22-46.54-71.08-59.76-112.31-17.39-54.22-9.85-113.66-24.44-168.7-17.35-65.5-64.43-119-115.32-163.72-58.55-51.47-125.55-95.37-199.55-121-60.43-20.91-118.41-16.67-179.89-26.23-132-20.52-270.13-.2-390.66,57.48-97.05,46.44-182.38,116.93-246.84,203-29.73,39.7-58.72,73.15-69.5,122.11-12.66,57.42-15.65,116.74-15.79,175.39-.07,33.6.72,68.76,8.21,101.67,6.41,28.16,21.91,53.59,25.61,82.44,2.66,20.7-.76,41.65-4.48,62.18-8.16,44.92-17.86,89.62-23.34,134.94-5.61,46.4-6.61,94.47,8.11,138.83,17.65,53.15,56.15,96.37,93.67,137.94,10.74,11.9,21.82,24.07,36.14,31.26,16.43,8.24,35.4,9.12,53.71,10.63,135,11.14,245.18,75,356.91,144.93,61.74,38.67,138.06,45,210.91,44.26,34.62-.37,70.86-2.77,103.88-12.46,24.35-7.14,46.95-18.25,65.84-35.43,66.94-60.84,65.86-178.39,142.52-226.4,29.18-18.27,64.79-22.7,96.44-36.25C1566.68,1398.87,1605.7,1352.05,1630.3,1300.53Z"/><path class="cls-2" d="M1349.2,1472.65c-18.72,51.82-37.27,102.43-55.21,153.26-6.14,17.39-12.64,33.85-34.24,35.58-21,1.68-29.93-13.17-38.85-28.74Q1152.26,1513,1083,1393.67c-2.33-4.05-4.94-7.94-7.34-11.77-56.19,23.54-98.29,22-150.58-.24-2.51,4.24-5.13,8.6-7.67,13Q846.81,1517,776.29,1639.34c-6.6,11.48-14.73,20.29-28.45,22.11-16.5,2.18-30.56-7.33-37.22-25.67-17.68-48.68-35.12-97.44-52.68-146.17-1.89-5.24-3.93-10.43-6.35-16.85L546,1491.69q-31.87,5.73-63.75,11.46c-15.58,2.77-29.49.29-38.88-13.91-9-13.57-6.4-26.67,1.39-40.13,55-94.92,109.54-190.11,164.88-284.83,6.27-10.72,5-17.49-4.21-23.64-7.11-4.76-14.57-9.33-22.46-12.52-85-34.32-122-145.52-73-222.79,16-25.27,15.81-48.29-.2-73.54-48.56-76.64-12-188.19,72.47-221.87,27.08-10.79,41.05-28.87,42.68-58.44,5-90.2,100.77-160.57,188.15-138.25,29.28,7.48,51.69.73,71.14-23,57.3-69.77,176.13-69.25,233.41.79,18.65,22.81,40.62,29.63,68.93,22.48,90-22.72,185,47.59,189.9,140.29,1.44,27.23,14.62,44.82,39.88,54.81,87.59,34.61,124,145.47,73.82,225.19-15.09,24-14.79,46.25.26,70.14,49.76,79,13.32,189.71-73.34,224.48a105.91,105.91,0,0,0-11.82,5.25c-19.82,11-21.45,16.74-10.41,35.85,53.35,92.39,106.9,184.66,159.75,277.33,5,8.82,8.69,20.49,7.66,30.27-2.09,19.81-20.3,29.83-43.23,25.95-30.66-5.2-61.21-11-91.81-16.48C1401.65,1482,1376.16,1477.48,1349.2,1472.65Zm121.88-725.82c-3.81-42.74-24.19-81.38-73.71-101.26-38.95-15.63-59.88-45.58-62.24-87.6-3.82-68-73.62-121.12-138.7-104.33-45,11.61-81.12-.35-110.82-36.11-42.11-50.7-128.66-50.32-170.76.52-29.31,35.4-65.32,47.19-109.77,35.71C741,437.19,670.14,488.69,666.17,554.82c-2.76,45.93-25.29,76.32-68,93.18-61.08,24.11-88.19,107.06-53,162.44,24.93,39.24,24.92,77.32,0,116.54-35.22,55.39-8.12,138.07,53.06,162.36,42.61,16.91,65.22,47.3,67.95,93.27,3.93,66.22,74.6,117.29,138.93,100.91,44.27-11.27,80.52.39,109.8,35.92,42.23,51.26,129.73,50.79,171.68-.59,28.78-35.25,65-46.56,108.73-35.44,65.17,16.56,135.56-34.51,139.54-101.56,2.67-44.8,24.5-75.14,66.2-91.68,63.37-25.14,90.16-107.5,53.69-165-24-37.84-24.22-75.52.18-113.09C1466.39,794.47,1471.41,775.21,1471.08,746.83ZM486.93,1459.18c4.14-.19,5.86-.07,7.51-.37Q574.72,1444.46,655,1430c19.11-3.45,25.45.08,32.17,18.62q26.9,74.19,53.72,148.43c1.21,3.32,2.77,6.51,5,11.68l145.37-251.8c-18.19-27.09-40-42.31-73-33.87-59.75,15.29-110.5-2.61-151.75-46-16.22-17.08-27-39.33-40.21-59.14Zm623-101.92,145.46,251.8c2.41-6.19,4-10,5.38-13.87q26.87-74.24,53.7-148.46c5.84-16.07,13.26-20.16,29.69-17.18q45.23,8.22,90.47,16.29c25.81,4.6,51.65,9.1,79.89,14.06-47.83-82.8-94.44-163.5-142.12-246.07-2.71,7-4.35,11.36-6.13,15.7-28.06,68.48-106.4,112.66-174,95.41C1155.87,1315.67,1129.65,1324.9,1109.88,1357.26Z"/><path class="cls-2" d="M1346.3,869.69c-1,191.45-157.38,346.87-347.46,345.27-191.05-1.61-345-156.93-344.18-347.25.83-192.15,156.3-345.94,348.75-345C1192.84,523.65,1347.26,679.91,1346.3,869.69Zm-650.13-1.52C695.8,1036,831.7,1172.7,999.62,1173.45s305.2-136.49,305.17-304.89c0-167.43-135.84-303.92-302.83-304.33C833.08,563.81,696.55,699.52,696.17,868.17Z"/><path class="cls-2" d="M856.5,1032.54,877,944.64c1.47-6.3,2-13,4.58-18.83,9.13-20,1.79-32.67-14.82-45.36-25.71-19.63-49.26-42.07-74-63-8.34-7.06-13.3-15.12-9.64-26,3.72-11.05,13.07-13.64,23.7-14.48,38.32-3,76.64-6.15,114.88-10.08,4.59-.47,10.74-5.18,12.63-9.48,15.48-35.13,30.24-70.58,44.92-106.06,4.11-9.93,9.56-17.43,21.46-17.32s17.11,7.9,21.18,17.74c14.36,34.68,29.27,69.13,43.44,103.88,3.12,7.65,6.77,11.43,15.63,12.05,36.62,2.54,73.16,6.17,109.76,9,11.69.91,23,2,27.25,15.19s-4.16,20.81-13.07,28.41c-27.93,23.85-55.44,48.19-83.55,71.82-6.27,5.27-7.69,10.09-5.81,17.78,9,36.88,17.37,73.92,26.26,110.83,2.51,10.4,2.62,19.88-6.77,26.89s-18.54,4-27.64-1.56c-31.66-19.38-63.74-38.1-95-58-9.17-5.85-15.53-4.94-24.11.41-32.24,20.1-64.65,40-97.67,58.72-6,3.43-16.34,3.77-22.64,1C862.27,1045.6,859.4,1036.8,856.5,1032.54Zm234.74-45c-6.9-29.52-12.71-56.42-19.6-83-3.7-14.32-.53-24.7,11.17-34.09,18.85-15.13,36.79-31.4,55-47.27,2.33-2,4.25-4.52,7.42-7.94-4.36-.71-6.83-1.28-9.32-1.48-24.53-2-49-4.32-73.62-5.7-14.1-.79-23.49-6.25-28.38-20-4.62-13-10.46-25.54-15.85-38.24s-11-25.57-17.74-41.27C988.17,737.45,977,763,966.67,789c-5,12.48-13.37,18.23-26.45,18.88-14.66.73-29.29,2-43.92,3.26-13.16,1.12-26.28,2.5-42.48,4.06,22.28,19.25,41.65,37,62.19,53.32,13.26,10.52,17.35,21.72,12.77,38.27-7.18,25.91-12.4,52.36-19,80.88,25.45-15.42,49-29,71.76-43.78,13.38-8.73,24.72-8.63,38.09.13C1042.25,958.78,1065.79,972.16,1091.24,987.53Z"/></svg>