<svg id="Шар_1" data-name="Шар 1" xmlns="http://www.w3.org/2000/svg" viewBox="0 0 2000 2000"><defs><style>.cls-1{fill:#f1e7ff;}.cls-2{fill:#8127fb;}</style></defs><path class="cls-1" d="M1511.13,680.34c-76.5-61.8-117.39-136.29-177.85-210.67-55.31-68.05-157.64-122.8-238.82-152.23C986.83,278.43,866,270.7,757.72,308c-54.52,18.78-120.16,51.3-157.93,96.47-37,44.29-42.35,106-63.17,159.23C507.94,637,438,684.13,385.56,742.8c-138.31,154.79-149.68,384.61-124.24,590.63,9.38,75.92,23.82,154.09,67.54,216.86,73.3,105.25,216.22,163.7,342.19,148,149.84-18.61,299.08,24.48,452,17,144.37-7,290.45-45.67,406.39-132,63.52-47.28,119.18-113.15,128.93-191.73,6.6-53.24-3.55-107.32,17.48-157.76,21.47-51.5,55-89.12,66.59-146.74,19.72-98.3-1.68-207.06-70.88-282-42.24-45.73-97.25-77.2-147.11-114.47Q1517.63,685.59,1511.13,680.34Z"/><path class="cls-2" d="M393.11,909.72V905c4.29-21.16,18.25-32.19,37.74-39.9,51.75-20.47,102.91-42.42,154.41-63.51,24.2-9.9,46.27-.69,56.52,23.27,7.61,17.78,14.77,35.76,22.17,53.63q41.44,100.11,83.11,200.14c1.48,3.54,6,8.66,8.63,8.4,13.59-1.33,27-4.17,41.18-6.59-.36-2.7-.46-5-1-7.23-27.83-118.77-55.95-237.48-83.41-356.34-7.34-31.74-17.28-62.81-15-96.6,3.75-56.39,4.83-113,6.61-169.47,1.11-35,8.71-46.52,40.44-58.64h14.25c19.31,5.26,30.84,18.48,40,35.78,29.34,55.52,59.65,110.52,89.4,165.83,3.34,6.19,6.41,12.82,8,19.62q39.61,168.33,78.8,336.76c5.89,25.2,11.89,50.37,18,76.12,13.83-9.58,26-19.1,39.18-26.72,8.6-5,12-10.06,11.5-20.29-3.11-70.54,2.62-140.57,13.24-210.31.86-5.65-1.6-13.29-5.21-17.91-45.58-58.41-35.22-125.44,5.36-168.56,24.94-26.5,45.36-57.62,65.34-88.28,13.63-20.92,18.22-45.58,11.78-70.64-3.54-13.78-.17-23.87,11.64-31.4H1160a409.69,409.69,0,0,1,82.71,90.61c60.6,90.18,65.82,192.47-.57,279.31-2.34,3.05-3,7.92-3.16,12-1.91,49-3.32,98-5.45,147-.63,14.47-3.12,28.86-4.63,42.22L1302,989.63c21-52.48,43.45-104.78,62.72-158.22,8.61-23.87,11.83-49.89,15.68-75.21,2.14-14.12,7.46-24.16,19.65-31.66,44.12-27.13,87.92-54.78,131.88-82.15,20.66-12.86,33.31-7.51,38.75,16.1,11.44,49.66,22.61,99.39,34.59,148.92,3.67,15.17,1.33,27.48-8.88,39.51-23.69,28-41.94,59.4-56,93.19q-47.89,115.49-95.11,231.25c-2.12,5.2-2.5,11.43-2.41,17.16.39,25.22,1.42,50.43,1.82,75.65.1,6.13-1.34,12.29-2.13,18.84,5.39.5,9.7.94,14,1.28,87.51,6.85,152.37,79.74,149.67,168.24-2.58,84.65-74,154.92-159.79,155q-446.94.63-893.89,0c-72.46-.09-136.65-51.57-154.25-121.65-1.92-7.63-3.49-15.33-5.23-23v-35.62a45,45,0,0,0,2.21-6.51c10.39-58,42.3-99.71,96.07-123.46,16.65-7.35,35.19-10.44,54-15.79-1-2.77-2.38-6.75-4-10.63-15.83-38.28-31.82-76.5-47.54-114.83Q443.36,1033,393.11,909.72Zm608.09,657.57c148.37,0,296.74.36,445.1-.15,72.28-.26,128.45-62,121.55-131.85-7.18-72.64-72.61-121.94-144.6-109-20.71,3.74-31.73-8.27-26.14-29a246.42,246.42,0,0,0,5.19-106.9c-21-124-147.42-211.78-270.68-186.94-83.29,16.79-141.62,64.86-174.88,143.07-3.63,8.51-8.12,16.86-17.83,16.55-7.25-.23-15.22-3.72-21.4-7.92-75.72-51.48-176.68-43.47-242.37,20.07-36.87,35.67-56.37,79.45-58.9,130.75-.72,14.54-7.86,23.54-19.65,23.61-5.42,0-10.88-1.64-16.26-2.83-86.3-19-164.29,60.8-143.39,146.7,13.72,56.38,61.66,93.64,121.54,93.71Q779.83,1567.51,1001.2,1567.29Zm-382.4-692c-5.49-13.1-10.44-24.94-15.64-37.36L434.71,907.73l146.65,353.45c20.8-75,64.55-126.75,131.21-159.54l-16.23-38.9c-5,2-9,3.53-12.93,5.15-20.47,8.39-40.8,17.1-61.42,25.08-14.14,5.48-27.88-2.89-28.5-17-.48-10.94,5.86-17.36,15.59-21.33,23.72-9.68,47.34-19.59,71.72-29.7-5.28-12.72-10.24-24.65-15-36.18-1.3-.13-1.73-.31-2-.18-11,4.42-21.9,9-32.92,13.29-13.6,5.32-24.93,1.19-29.52-10.55-4.32-11.07.94-21.23,14.25-27,11.14-4.83,22.39-9.41,34.25-14.38-5.4-12.87-10.35-24.68-15.6-37.18-24.07,10-47,19.61-70.05,28.8-5,2-10.8,3.68-15.92,3-9.63-1.24-15.53-8-16.57-17.6-1.12-10.3,4.33-17.42,13.62-21.32C569.29,895.62,593.39,885.76,618.8,875.27ZM928.89,1108c8.9-13.68,15.56-25.41,23.73-36,5.44-7,6.3-13.28,4.31-21.72-20.47-86.5-40.52-173.1-60.75-259.66Q883,734.36,869.66,678c-10,7.31-18.72,14.66-28.39,20.49-5.92,3.56-7.13,6.84-5.46,13.24,4.29,16.43,7.91,33,11.67,49.61,3.08,13.56-2.62,24.32-14.11,27-11.87,2.8-21.37-3.81-25-17.44-.81-3.05-1.49-6.14-2.22-9.21-3.94-16.38-7.87-32.76-11.47-47.72l-42.83-8.21c.3,2.1.41,4,.83,5.77q18.5,79.06,37,158.1,23.91,102.14,48,204.23c.84,3.57,3.68,8.52,6.63,9.42,12.24,3.74,24.88,6.17,38.43,9.32-.62-4.22-.85-7.29-1.54-10.25q-13.06-56-26.24-111.93c-7.32-31.16-14.79-62.27-22-93.46-4-17.54,4-29.74,19.15-29.31,12.54.36,17.78,8.58,20.34,19.52Q888,933.58,903.52,999.93C911.78,1035.17,920.07,1070.4,928.89,1108Zm246.85-645.55c-5.51,29.55-16,54-31.62,75.46-19,26.15-39.3,51.5-60.3,76.11-27.48,32.2-29,78.72-1.58,110.77,3.22,3.76,8.82,7.28,13.57,7.64,35.08,2.69,70.2,4.7,105.34,6.41,3.56.17,8.64-2.07,10.74-4.89,30-40.11,43.64-85.09,35.09-134.82-7.35-42.71-25.78-81.1-52.75-115.17C1188.92,477.22,1183.08,470.93,1175.74,462.42ZM1504.55,710l-1.74-1.61c-25.46,15.86-51,31.56-76.22,47.81-3,1.92-4.88,6.61-5.84,10.38-8.19,32.05-16.2,64.13-23.8,96.32-1.06,4.51-1,10.28,1,14.38,17.42,37.51,63.48,56.32,102,41.63,4.2-1.6,8.11-5.84,10.58-9.83,17.19-27.79,34-55.8,50.81-83.85,1.88-3.14,4.38-7.29,3.71-10.35-6.51-29.89-13.64-59.65-21.22-92.15-2.86,6.36-4.69,10.18-6.32,14.09-7.91,18.93-15.49,38-23.74,56.78-5.07,11.53-15.64,15.79-26.23,11.62-10.33-4.06-14.91-14.78-11.19-26.55.94-3,2.42-5.83,3.62-8.74Q1492.25,739.94,1504.55,710Zm-82,410.51L1486.9,965c-45.78,2-82.3-13.6-112.44-46.14l-39,94.45C1373.6,1041.83,1401.62,1077,1422.51,1120.49ZM740.57,571.67c-1,23.53-2,45.52-2.65,67.53-.08,2.43,1.46,5.25,3,7.34,13.44,18.36,43.18,28.61,66,22.94,21.21-5.28,43.11-28.71,46.3-49.65.29-1.89.62-4.23-.19-5.76-10.82-20.38-21.83-40.65-33.26-61.8C795.75,571.41,769.53,576,740.57,571.67ZM1085,874.44v96.44l103.82-14.58c2.53-23.88,5.3-50,8-75.14Zm113.59-94.75-101.76-6c-2.48,20.55-4.71,39.1-7.32,60.7l109.08,5.66Zm-399-263.2c-1.35-2.93-2.5-5.82-4-8.54-12.57-23.3-25.08-46.62-38-69.75-1.27-2.28-6-5.19-7.12-4.51-2.56,1.55-5.36,5.09-5.49,7.94-1.31,27.65-2.26,55.33-2.69,83,0,2.42,4.13,6.65,6.82,7.09C768.15,534.86,785.22,530.79,799.62,516.49Z"/><path class="cls-2" d="M885,1406.08c2.12-50.78,33.53-95.9,81-113.9A120.59,120.59,0,0,1,1099.84,1326c5.28,6,8.93,7.27,16.69,4.42a100.21,100.21,0,0,1,122.77,47c7.39,13.88,5.06,26-6.12,31.91-10.71,5.64-21.51,1.25-29.22-11.88-19.36-32.93-56.38-42.39-87.48-22.37-17.73,11.42-26.8,9.16-37.35-9.29-19.25-33.64-56.49-49-93.32-38.35a80.31,80.31,0,0,0-58.1,82.42c.58,8.91,3.47,17.75,6,26.43,3.87,13.5-.47,24.66-11.69,28.42s-22.21-1.62-26.45-15.21C891.1,1435.33,888.46,1420.58,885,1406.08Z"/><path class="cls-2" d="M1162.73,1060.48c.13,11.88-7.45,19.27-21.31,20.41-32.31,2.68-57,17.48-72.65,46.13-3.37,6.16-5.34,13.11-7.85,19.74-4.47,11.77-14,17.27-25,14.37-10.56-2.79-16.07-12.92-13.76-25.32,9.52-51.24,68-97.73,119.92-95.34C1154.27,1041,1162.61,1049.12,1162.73,1060.48Z"/><path class="cls-2" d="M755.78,1182.45c11.63,0,18.46,4.94,21.27,14.18s-.14,17.32-8.37,22.67c-3.92,2.55-8.62,3.88-12.8,6.06-21.42,11.15-34.21,28.58-37.83,52.56-.41,2.74-.67,5.5-1.23,8.2-2.4,11.59-11,18.56-21.58,17.57s-18.23-9.22-18.31-21.08A94.23,94.23,0,0,1,695.37,1225c13.65-18.63,31.57-31.84,53-40.34A66.81,66.81,0,0,1,755.78,1182.45Z"/><path class="cls-2" d="M1222.61,608.47c.06,34.63-8.73,63.21-26.33,89-8.67,12.73-19.5,16-30,9.46s-12.29-19-3.55-32.06c17.14-25.53,21.92-53.49,18-83.57-1.63-12.57,5.22-21.68,16.32-23.44,11.32-1.81,20.09,4.55,23.12,16.87a51.23,51.23,0,0,1,1.39,8.15C1222.12,599.21,1222.43,605.51,1222.61,608.47Z"/></svg>