<svg id="Шар_1" data-name="Шар 1" xmlns="http://www.w3.org/2000/svg" viewBox="0 0 2000 2000"><defs><style>.cls-1{fill:#f1e7ff;}.cls-2{fill:#8127fb;}</style></defs><path class="cls-1" d="M1005.05,287.27c-84.45-6.21-172.86-17.75-248.86,21.31C666,354.92,580.19,425.9,528.65,514c-21.45,36.67-37.19,76.77-62.27,111.07-77.51,106-202.22,111.74-153.14,268,15.76,50.2,36,104.83,16.18,153.56-7.7,18.92-20.88,35-31.37,52.53-143.12,239.33,122.41,538.66,355.82,574.49,91.59,14,184.46-62.6,272.11-32.53,33.36,11.45,59.84,36.94,91,53.4,140.64,74.19,283.89-32.37,374.14-134.66,20.87-23.66,40.36-49.55,49.85-79.64,21.06-66.73,43-102.35,95.93-152.19a698.41,698.41,0,0,0,195.72-329.77c6.69-25.61,11.95-52.18,8.68-78.45-3.32-26.56-15.14-51.24-27.61-74.92-40.09-76.17-83.21-143.19-116.65-221.25-34.49-80.49-95.86-160.46-166.35-212.41-82.4-60.73-182.17-95.67-283.71-108.61C1097.2,296.25,1050.53,290.61,1005.05,287.27Z"/><path class="cls-2" d="M1127.66,1006a227.39,227.39,0,0,0-56.26-27.6,110.77,110.77,0,0,0,17.24-20.77,115.42,115.42,0,0,0,9.72-104.7A110.61,110.61,0,0,0,1060,804a104.44,104.44,0,0,0-28-14.18,102.95,102.95,0,0,0-73.82,3.8,108.05,108.05,0,0,0-46.8,40.49,115.4,115.4,0,0,0-9.72,104.69,111.3,111.3,0,0,0,27,39.6q-8.91,2.94-17.49,6.55a228.06,228.06,0,0,0-139.44,210.36,20,20,0,0,0,20,20h416.62a20,20,0,0,0,20-20A228,228,0,0,0,1127.66,1006ZM974.42,961.55A68.17,68.17,0,0,1,945,936a74.17,74.17,0,0,1-11.62-40.15,75.16,75.16,0,0,1,5.37-28,70.6,70.6,0,0,1,24.41-31.25,64.36,64.36,0,0,1,17.3-8.76,62.87,62.87,0,0,1,45.11,2.33A68,68,0,0,1,1055,855.7a74.06,74.06,0,0,1,11.63,40.15,75.14,75.14,0,0,1-5.37,28,70.63,70.63,0,0,1-24.41,31.26,64.36,64.36,0,0,1-17.3,8.76,63,63,0,0,1-45.11-2.33Zm-79.69,77.58a188.18,188.18,0,0,1,292.52,136.16H812.75A186.7,186.7,0,0,1,826.48,1122,189.15,189.15,0,0,1,894.73,1039.13Z"/><path class="cls-2" d="M941.65,543.1A103.52,103.52,0,0,0,980,559V691.5a20,20,0,0,0,40,0V559a104.39,104.39,0,1,0-78.35-15.91Zm-.94-111.55A64.65,64.65,0,0,1,964,403.23a64.47,64.47,0,0,1,61-5.93,64.65,64.65,0,0,1,28.32,23.33,64.47,64.47,0,0,1,5.93,61A64.66,64.66,0,0,1,1036,510a64.5,64.5,0,0,1-61,5.92,64.58,64.58,0,0,1-28.32-23.33,64.47,64.47,0,0,1-5.93-61Z"/><path class="cls-2" d="M1058.35,1456.9A103.52,103.52,0,0,0,1020,1441V1309.63a20,20,0,0,0-40,0V1441a104.39,104.39,0,1,0,78.35,15.91Zm.94,111.55a64.58,64.58,0,0,1-23.33,28.32,64.47,64.47,0,0,1-61,5.93,64.65,64.65,0,0,1-28.32-23.33,64.47,64.47,0,0,1-5.93-61A64.67,64.67,0,0,1,964,1490a63.72,63.72,0,0,1,30.15-10.7,20,20,0,0,0,11.61,0,63.57,63.57,0,0,1,19.24,4.78,64.66,64.66,0,0,1,28.33,23.33,64.5,64.5,0,0,1,5.92,61Z"/><path class="cls-2" d="M1639.54,959.38a104.3,104.3,0,0,0-198.43,20H1308.78a20,20,0,0,0,0,40h132.11a103,103,0,0,0,6.39,21.19,104.36,104.36,0,0,0,192.26-81.24ZM1602.7,1025a64.65,64.65,0,0,1-23.33,28.32,64.47,64.47,0,0,1-61,5.93A64.66,64.66,0,0,1,1490,1036a64,64,0,0,1-10.93-33.6,20.2,20.2,0,0,0,.24-2.93,19.5,19.5,0,0,0-.2-2.67,63.65,63.65,0,0,1,5-21.8,64.66,64.66,0,0,1,23.33-28.33,64.5,64.5,0,0,1,61-5.92A64.58,64.58,0,0,1,1596.77,964a64.47,64.47,0,0,1,5.93,61Z"/><path class="cls-2" d="M543.1,1058.35a103.15,103.15,0,0,0,15.79-37.78h132.9a20,20,0,0,0,0-40H559.11a104.37,104.37,0,1,0-16,77.78ZM515.89,1025a64.67,64.67,0,0,1-23.34,28.32,64.47,64.47,0,0,1-61,5.93A64.58,64.58,0,0,1,403.23,1036a64.47,64.47,0,0,1-5.93-61,64.73,64.73,0,0,1,23.33-28.33,64.5,64.5,0,0,1,61-5.92A64.6,64.6,0,0,1,510,964a64.54,64.54,0,0,1,5.93,61Z"/><path class="cls-2" d="M1457.56,1311.15a104.25,104.25,0,0,0-130.78-13.81l-41.17-41.43a20,20,0,1,0-28.37,28.19l40.81,41.07a103,103,0,0,0-11,20.33,104.26,104.26,0,0,0,22.78,113h0a104.34,104.34,0,1,0,147.78-147.34Zm-14.28,97.94a64.3,64.3,0,0,1-105.17,21.16l-14.17,14.12,14.17-14.12a64.21,64.21,0,0,1-.59-90.23,17.89,17.89,0,0,0,1.87-1.63c.49-.49,1-1,1.39-1.52a64.36,64.36,0,0,1,102.5,72.22Z"/><path class="cls-2" d="M704.31,671.28A102.73,102.73,0,0,0,713,654.5a104.39,104.39,0,1,0-170.56,34.35l14.16-14.12-14.16,14.12a104.21,104.21,0,0,0,134.28,11.42L719,742.82a20,20,0,1,0,28.37-28.19Zm-63.8,3.55a64.28,64.28,0,0,1-69.75-14.23h0a64.26,64.26,0,1,1,69.75,14.23Z"/><path class="cls-2" d="M717.57,1254.29l-43.73,43.46a104.39,104.39,0,1,0,16.38,160.74l-14.16-14.12,14.16,14.12a104.22,104.22,0,0,0,12.15-132.7l43.4-43.13a20,20,0,1,0-28.2-28.37ZM676,1409a64.63,64.63,0,1,1,4.69-24.18A64.06,64.06,0,0,1,676,1409Z"/><path class="cls-2" d="M1287.05,744.44l41.14-40.88a104.26,104.26,0,0,0,129.37-14.71l-14.16-14.12,14.16,14.12A104.38,104.38,0,1,0,1299,676.17l-40.15,39.9a20,20,0,0,0,28.2,28.37ZM1324,591a64.53,64.53,0,1,1,20.2,75,19.72,19.72,0,0,0-8.09-7.47,64,64,0,0,1-16.8-43.34A64.55,64.55,0,0,1,1324,591Z"/></svg>