<svg width="55" height="55" viewBox="0 0 55 55" fill="none" xmlns="http://www.w3.org/2000/svg">
<rect width="55" height="55" rx="27.5" fill="white"/>
<rect x="0.5" y="0.5" width="54" height="54" rx="27" stroke="black" stroke-opacity="0.25"/>
<path d="M17.0001 27.9877C17.0001 28.2529 17.1054 28.5073 17.293 28.6948C17.4805 28.8824 17.7349 28.9877 18.0001 28.9877H33.586L30.2931 32.2807C30.1976 32.373 30.1214 32.4833 30.069 32.6053C30.0166 32.7273 29.989 32.8585 29.9878 32.9913C29.9867 33.1241 30.012 33.2558 30.0623 33.3787C30.1126 33.5016 30.1868 33.6132 30.2807 33.7071C30.3746 33.801 30.4862 33.8753 30.6091 33.9255C30.732 33.9758 30.8637 34.0011 30.9965 34C31.1293 33.9988 31.2605 33.9712 31.3825 33.9188C31.5045 33.8664 31.6148 33.7902 31.7071 33.6947L36.7065 28.6954C36.8935 28.5074 36.9985 28.2529 36.9985 27.9877C36.9985 27.7225 36.8935 27.4681 36.7065 27.28L31.7071 22.2807C31.5185 22.0986 31.2659 21.9978 31.0037 22C30.7415 22.0023 30.4907 22.1075 30.3053 22.2929C30.1199 22.4783 30.0147 22.7291 30.0124 22.9913C30.0101 23.2535 30.1109 23.5061 30.2931 23.6947L33.586 26.9877H18.0001C17.7349 26.9877 17.4805 27.0931 17.293 27.2806C17.1054 27.4681 17.0001 27.7225 17.0001 27.9877Z" fill="#6F6F6F"/>
</svg>
