<svg width="20" height="17" viewBox="0 0 20 17" fill="none" xmlns="http://www.w3.org/2000/svg">
<g id="user_icon">
<path id="Vector" d="M7 7.55558C7.79113 7.55558 8.56448 7.33402 9.22228 6.91891C9.88008 6.5038 10.3928 5.91379 10.6955 5.22349C10.9983 4.53319 11.0775 3.7736 10.9231 3.04078C10.7688 2.30796 10.3878 1.63482 9.82843 1.10649C9.26902 0.578157 8.55629 0.218358 7.78036 0.0725909C7.00444 -0.073176 6.20017 0.00163685 5.46927 0.287569C4.73836 0.573501 4.11365 1.05771 3.67412 1.67896C3.2346 2.30022 3 3.03062 3 3.77779C3.00119 4.77938 3.423 5.73962 4.17289 6.44785C4.92278 7.15608 5.9395 7.55446 7 7.55558ZM7 1.8889C7.39556 1.8889 7.78224 1.99968 8.11114 2.20723C8.44004 2.41479 8.69638 2.70979 8.84776 3.05494C8.99913 3.40009 9.03874 3.77989 8.96157 4.1463C8.8844 4.51271 8.69392 4.84928 8.41421 5.11344C8.13451 5.37761 7.77814 5.55751 7.39018 5.63039C7.00222 5.70328 6.60009 5.66587 6.23463 5.52291C5.86918 5.37994 5.55682 5.13783 5.33706 4.82721C5.1173 4.51658 5 4.15138 5 3.77779C5.00053 3.27698 5.21141 2.79682 5.58637 2.44269C5.96133 2.08857 6.46973 1.8894 7 1.8889Z" fill="#242424"/>
<path id="Vector_2" d="M13.6836 12.4005C13.063 11.2283 12.109 10.2424 10.9285 9.55334C9.74805 8.8643 8.38773 8.49933 7 8.49933C5.61227 8.49933 4.25196 8.8643 3.07148 9.55334C1.89101 10.2424 0.937015 11.2283 0.316401 12.4005L0.105501 12.7994C0.0359514 12.9306 -0.000174823 13.0754 6.36084e-07 13.2222V16.0556C6.36084e-07 16.306 0.105357 16.5463 0.292894 16.7234C0.48043 16.9005 0.734784 17 1 17H13C13.2652 17 13.5196 16.9005 13.7071 16.7234C13.8946 16.5463 14 16.306 14 16.0556V13.2222C14 13.0757 13.9639 12.9312 13.8945 12.8002L13.6836 12.4005ZM12 15.1111H2V13.4449L2.1055 13.2457C2.56006 12.3873 3.25871 11.6654 4.12318 11.1609C4.98765 10.6564 5.98379 10.3891 7 10.3891C8.01621 10.3891 9.01235 10.6564 9.87682 11.1609C10.7413 11.6654 11.4399 12.3873 11.8945 13.2457L12 13.4449V15.1111Z" fill="#242424"/>
<path id="Vector_3" d="M20 6.61112H18V4.72223H16V6.61112H14V8.50002H16V10.3889H18V8.50002H20V6.61112Z" fill="#242424"/>
</g>
</svg>
