<svg width="379" height="80" viewBox="0 0 379 80" fill="none" xmlns="http://www.w3.org/2000/svg">
<g filter="url(#filter0_d_395_171)">
<path d="M35.6094 34.125V46H33.9844V35.625H27.5469V46H25.9219V34.125H35.6094ZM39.9219 41.8125C40.1094 43.625 41.2656 44.7812 43.0469 44.7812C44.5781 44.7812 45.4531 44.2188 45.9531 43.5L47.0781 44.4688C46.3906 45.375 45.1094 46.1562 43.0781 46.1562C40.0469 46.1562 38.3281 44.0938 38.3281 41.3125C38.3281 38.4375 40.2344 36.4688 42.9219 36.4688C45.6094 36.4688 47.3594 38.375 47.3594 41.3125C47.3594 41.5 47.3594 41.6562 47.3281 41.8125H39.9219ZM42.9219 37.8125C41.2969 37.8125 40.2031 38.875 39.9531 40.5625H45.7344C45.5156 38.875 44.4531 37.8125 42.9219 37.8125ZM54.4531 36.4688C56.9531 36.4688 58.6094 38.375 58.6094 41.3125C58.6094 44.1875 56.8594 46.1562 54.4531 46.1562C53.1094 46.1562 51.9844 45.625 51.2656 44.6562V49.125H49.7031V36.625H51.0156L51.1406 38.1875C51.8906 37.0938 53.0781 36.4688 54.4531 36.4688ZM54.0781 44.7812C55.8594 44.7812 57.0156 43.4062 57.0156 41.3125C57.0156 39.2188 55.8594 37.8438 54.0781 37.8438C52.2969 37.8438 51.1406 39.2188 51.1406 41.3125C51.1406 43.4062 52.2969 44.7812 54.0781 44.7812ZM61.8906 41.8125C62.0781 43.625 63.2344 44.7812 65.0156 44.7812C66.5469 44.7812 67.4219 44.2188 67.9219 43.5L69.0469 44.4688C68.3594 45.375 67.0781 46.1562 65.0469 46.1562C62.0156 46.1562 60.2969 44.0938 60.2969 41.3125C60.2969 38.4375 62.2031 36.4688 64.8906 36.4688C67.5781 36.4688 69.3281 38.375 69.3281 41.3125C69.3281 41.5 69.3281 41.6562 69.2969 41.8125H61.8906ZM64.8906 37.8125C63.2656 37.8125 62.1719 38.875 61.9219 40.5625H67.7031C67.4844 38.875 66.4219 37.8125 64.8906 37.8125ZM78.2344 36.625V38.0625H73.2344V46H71.6719V36.625H78.2344ZM87.6406 36.625V46H86.0781V38H81.8281V41.6875C81.8281 45.125 81.1406 46.0625 79.4531 46.0625C79.1406 46.0625 78.8281 46.0312 78.6719 46V44.5625H79.1094C80.0156 44.5625 80.2969 44.4062 80.2969 41.5V36.625H87.6406ZM97.6094 36.625V46H96.0469V42.3125H93.7656L91.3594 46H89.5781L92.1406 42.0938C90.9531 41.7188 90.2344 40.7812 90.2344 39.5625C90.2344 37.8125 91.5469 36.625 93.5469 36.625H97.6094ZM93.6719 41.0938H96.0469V37.9688H93.6719C92.4844 37.9688 91.7969 38.5625 91.7969 39.5C91.7969 40.5 92.4844 41.0938 93.6719 41.0938ZM107.297 36.625H108.859V46H107.297V41.9375H102.297V46H100.734V36.625H102.297V40.5H107.297V36.625ZM118.641 36.625H120.266L116.672 46.5C116.141 47.9688 115.203 49.2812 113.703 49.2812C112.016 49.2812 111.203 48.0938 111.234 46.6562L112.641 46.4062C112.609 47.125 112.797 47.8438 113.703 47.8438C114.297 47.8438 114.703 47.4375 115.078 46.6875L110.672 36.625H112.391L115.828 44.8438L118.641 36.625ZM129.203 36.625V38H125.766V46H124.203V38H120.766V36.625H129.203ZM137.547 36.625H139.203V46H137.672V38.7188L132.734 46H131.078V36.625H132.609V43.9062L137.547 36.625ZM153.703 46L150.297 41.4688L148.891 42.7812V46H147.328V36.625H148.891V40.9688L153.453 36.625H155.453L151.422 40.4062L155.641 46H153.703ZM160.797 46.1562C157.953 46.1562 156.109 44.25 156.109 41.3125C156.109 38.4375 158.047 36.4688 160.797 36.4688C163.641 36.4688 165.484 38.375 165.484 41.3125C165.484 44.1875 163.547 46.1562 160.797 46.1562ZM160.797 44.7812C162.672 44.7812 163.891 43.4062 163.891 41.3125C163.891 39.2188 162.672 37.8438 160.797 37.8438C158.922 37.8438 157.703 39.2188 157.703 41.3125C157.703 43.4062 158.922 44.7812 160.797 44.7812ZM174.453 36.625H176.016V46H174.453V41.9375H169.453V46H167.891V36.625H169.453V40.5H174.453V36.625ZM189.109 36.5312C191.328 36.5312 192.797 38.4062 192.797 41.3125C192.797 44.1562 191.234 46.0938 189.109 46.0938C187.953 46.0938 187.016 45.6562 186.391 44.75V49.125H184.828V44.6875C184.172 45.5938 183.234 46.0938 182.109 46.0938C179.891 46.0938 178.422 44.2188 178.422 41.3125C178.422 38.4688 179.984 36.5312 182.109 36.5312C183.266 36.5312 184.203 36.9688 184.828 37.8438V33.5H186.391V37.9375C187.047 37 187.984 36.5312 189.109 36.5312ZM182.484 44.7812C183.953 44.7812 184.922 43.4062 184.922 41.3125C184.922 39.2188 183.953 37.8438 182.484 37.8438C180.984 37.8438 180.016 39.2188 180.016 41.3125C180.016 43.4062 180.984 44.7812 182.484 44.7812ZM188.766 44.7812C190.234 44.7812 191.203 43.4062 191.203 41.3125C191.203 39.2188 190.234 37.8438 188.766 37.8438C187.266 37.8438 186.297 39.2188 186.297 41.3125C186.297 43.4062 187.266 44.7812 188.766 44.7812ZM196.078 41.8125C196.266 43.625 197.422 44.7812 199.203 44.7812C200.734 44.7812 201.609 44.2188 202.109 43.5L203.234 44.4688C202.547 45.375 201.266 46.1562 199.234 46.1562C196.203 46.1562 194.484 44.0938 194.484 41.3125C194.484 38.4375 196.391 36.4688 199.078 36.4688C201.766 36.4688 203.516 38.375 203.516 41.3125C203.516 41.5 203.516 41.6562 203.484 41.8125H196.078ZM199.078 37.8125C197.453 37.8125 196.359 38.875 196.109 40.5625H201.891C201.672 38.875 200.609 37.8125 199.078 37.8125ZM210.609 36.4688C213.109 36.4688 214.766 38.375 214.766 41.3125C214.766 44.1875 213.016 46.1562 210.609 46.1562C209.266 46.1562 208.141 45.625 207.422 44.6562V49.125H205.859V36.625H207.172L207.297 38.1875C208.047 37.0938 209.234 36.4688 210.609 36.4688ZM210.234 44.7812C212.016 44.7812 213.172 43.4062 213.172 41.3125C213.172 39.2188 212.016 37.8438 210.234 37.8438C208.453 37.8438 207.297 39.2188 207.297 41.3125C207.297 43.4062 208.453 44.7812 210.234 44.7812ZM218.047 41.8125C218.234 43.625 219.391 44.7812 221.172 44.7812C222.703 44.7812 223.578 44.2188 224.078 43.5L225.203 44.4688C224.516 45.375 223.234 46.1562 221.203 46.1562C218.172 46.1562 216.453 44.0938 216.453 41.3125C216.453 38.4375 218.359 36.4688 221.047 36.4688C223.734 36.4688 225.484 38.375 225.484 41.3125C225.484 41.5 225.484 41.6562 225.453 41.8125H218.047ZM221.047 37.8125C219.422 37.8125 218.328 38.875 218.078 40.5625H223.859C223.641 38.875 222.578 37.8125 221.047 37.8125ZM234.391 36.625H235.953V46H234.391V41.9375H229.391V46H227.828V36.625H229.391V40.5H234.391V36.625ZM247.047 44.625H248.266V48.1875H246.797V46H239.078V36.625H240.641V44.625H245.484V36.625H247.047V44.625ZM250.516 35.25V33.5H252.266V35.25H250.516ZM250.609 46V36.625H252.172V46H250.609ZM263.578 36.4688C266.328 36.4688 268.109 38.375 268.109 41.3125C268.109 44.1875 266.234 46.1562 263.578 46.1562C261.016 46.1562 259.297 44.5312 259.078 41.9375H257.016V46H255.453V36.625H257.016V40.5H259.109C259.422 38.0625 261.172 36.4688 263.578 36.4688ZM263.578 44.7812C265.359 44.7812 266.516 43.4062 266.516 41.3125C266.516 39.2188 265.359 37.8438 263.578 37.8438C261.797 37.8438 260.641 39.2188 260.641 41.3125C260.641 43.4062 261.797 44.7812 263.578 44.7812Z" fill="white" fill-opacity="0.5" shape-rendering="crispEdges"/>
</g>
<circle cx="339" cy="40" r="25" fill="white"/>
<path d="M347 33.9382V41.444C347 41.6928 346.901 41.9315 346.725 42.1074C346.549 42.2834 346.311 42.3822 346.062 42.3822C345.813 42.3822 345.574 42.2834 345.398 42.1074C345.222 41.9315 345.124 41.6928 345.124 41.444V36.2032L333.59 47.7366C333.413 47.9075 333.176 48.0021 332.93 48C332.684 47.9978 332.449 47.8992 332.275 47.7252C332.101 47.5512 332.002 47.3159 332 47.0699C331.998 46.8239 332.092 46.5869 332.263 46.41L343.797 34.8764H338.556C338.307 34.8764 338.069 34.7776 337.893 34.6016C337.717 34.4257 337.618 34.1871 337.618 33.9382C337.618 33.6894 337.717 33.4507 337.893 33.2748C338.069 33.0988 338.307 33 338.556 33H346.062C346.31 33.0011 346.548 33.1003 346.724 33.276C346.9 33.4517 346.999 33.6897 347 33.9382Z" fill="#242424"/>
<circle cx="339" cy="40" r="39.5" stroke="white" stroke-opacity="0.25"/>
<defs>
<filter id="filter0_d_395_171" x="0.921875" y="12.5" width="292.188" height="65.7812" filterUnits="userSpaceOnUse" color-interpolation-filters="sRGB">
<feFlood flood-opacity="0" result="BackgroundImageFix"/>
<feColorMatrix in="SourceAlpha" type="matrix" values="0 0 0 0 0 0 0 0 0 0 0 0 0 0 0 0 0 0 127 0" result="hardAlpha"/>
<feOffset dy="4"/>
<feGaussianBlur stdDeviation="12.5"/>
<feComposite in2="hardAlpha" operator="out"/>
<feColorMatrix type="matrix" values="0 0 0 0 0 0 0 0 0 0 0 0 0 0 0 0 0 0 0.15 0"/>
<feBlend mode="normal" in2="BackgroundImageFix" result="effect1_dropShadow_395_171"/>
<feBlend mode="normal" in="SourceGraphic" in2="effect1_dropShadow_395_171" result="shape"/>
</filter>
</defs>
</svg>
