<svg id="Шар_1" data-name="Шар 1" xmlns="http://www.w3.org/2000/svg" viewBox="0 0 2000 2000"><defs><style>.cls-1{fill:#f1e7ff;}.cls-2{fill:#8127fb;}</style></defs><path class="cls-1" d="M1466.69,1665.94c33.2-14.64,65.61-30.84,95-51.8,149.26-106.54,207.22-335.39,235-506,12.45-76.49,10.15-155.73-11.87-230.57C1745.56,744.22,1638,627,1500.93,594.2c-81.45-19.49-172.11-10.74-243.49-54.19-68.24-41.53-105.21-123.61-177.26-158.32-38.45-18.52-82.71-21.21-125.35-19C794.43,370.82,638.9,444.51,538,565c-41,49-89.65,87.64-143.32,122.3-148.94,96.17-217,268.29-194.74,441.48,10.87,84.59,54.86,148.38,125.85,195.58,76,50.52,171.8,61.27,232.3,136.38,14.66,18.2,26.17,38.69,40.89,56.84,43.1,53.1,109.86,81.7,175.68,102,113.52,35.07,232.19,32.56,343.59,66.29,114.46,34.65,191.55,45.5,303.37-.89C1436.65,1678.8,1451.75,1672.53,1466.69,1665.94Z"/><path class="cls-2" d="M1718.16,1211.66c-21.18,29.24-52.92,39.63-85.86,46.78-76.58,16.63-154,16.26-231.56,9.33-1.87-.17-3.68-.93-7-1.81,1.73-14.41,3.45-28.82,4.8-40,37.24,0,72.56.51,107.86-.13,44.57-.81,89-3.57,132-16.65,33.75-10.25,34-10.32,33.63-44.68-.17-17.19.39-34.68-2.5-51.49-9.25-53.81-55.2-92.61-109.66-93.81-23.36-.51-46.74-.08-70.92-.08v-45.3c44.62-4.52,76.22-26,87.92-70.16,9.87-37.24-1.17-69.92-31.15-93.8-35.65-28.4-73.91-27.19-113.14-3.09q-13.41-17.76-26.44-35c45.34-40.69,125-37,173.78,6.33,46.68,41.47,70.21,123.94,10.17,197,2.08,1.09,3.9,2.48,6,3.07q100.07,28.62,119.79,130.77c.34,1.77,1.52,3.38,2.31,5.07Z"/><path class="cls-2" d="M1308.11,1287.41l68.36,68.61c7.48-9.06,14.75-19.11,23.3-27.91,13.4-13.78,25-13.87,38.48-.45q123.66,123.31,247,246.95c13.56,13.59,13.62,25.08.26,38.61q-42.9,43.47-86.39,86.38c-13.41,13.22-24.92,13-38.57-.65q-123.09-122.86-246-246c-14.23-14.27-14.13-25.3-.32-39.62,8-8.27,16-16.45,24-24.7.28-.28.25-.87,0,.2l-66-65.77c-100,85.34-217.27,123.64-350.52,105.38-116.77-16-212-72-284.84-164.61C497.41,1086.34,519,829,685.59,675c166.89-154.23,424.9-154.37,592-1C1447,829.59,1472.77,1099.83,1308.11,1287.41ZM982.1,605c-214.19-.52-390.45,174.56-391,388.41-.59,216.89,173.35,393,388.77,393.64,216.52.65,392.71-173.67,393.28-389.1C1373.68,781.18,1198.89,605.52,982.1,605Zm382.18,826.12,216.39,216.49,53-53.06-216.34-216.32Z"/><path class="cls-2" d="M565.33,1223.12c1.71,14,3.44,28,5.39,43.89-14.73,1.25-28.37,2.85-42.06,3.49-71.48,3.38-142.88,3.2-212.4-16.39-18.95-5.33-36.78-15.61-54.07-25.48-11.76-6.71-17.05-18.49-16.31-33,1.61-31.51-1.69-63.87,4.37-94.42,12.38-62.4,52.31-102.64,112.93-122.11,2.72-.87,5.52-1.49,8.23-2.4a8.77,8.77,0,0,0,2.27-1.69c-50.1-74.49-46.5-144.52,10.08-196.34,48.05-44,124.79-47.84,174.43-7.4l-26.42,35.42c-40.9-24.9-80.84-25.55-117.08,6.33-28.79,25.32-37.83,58.67-26.1,95.34,13.11,41,43.7,61.15,86.61,65.25V1019c-20.65,0-41.08,0-61.51,0-72.75.15-121.51,48.92-121.65,121.69,0,13.89.86,27.86-.28,41.65-.89,10.73,3.55,16.92,12.85,19.06,32.94,7.6,65.78,18.57,99.15,20.77C456.62,1225.68,509.88,1223.12,565.33,1223.12Z"/><path class="cls-2" d="M880.54,975.78c-61.83-75.84-35.46-158.47,10.57-198.58,52.57-45.81,132-45.32,183.7,1.58,47.43,43,67.94,125,9,196.32,3.64,1.37,6.81,2.84,10.13,3.77a161.19,161.19,0,0,1,118,151c.54,21.06-.81,42.2.5,63.2,1.13,18.21-7.09,30-21,39.53-24.27,16.55-51.84,24.56-80.3,29.05-96.37,15.22-192.65,16.58-287.88-7.36-19-4.77-36.9-15.3-54.23-25.07-12.26-6.91-17.89-19-17.08-34,1.7-31.49-1.65-63.87,4.49-94.38,12.54-62.32,52.53-102.5,113.22-121.76C872.76,978.05,875.92,977.15,880.54,975.78Zm101.93,45.57c0-.77,0-1.54,0-2.3-23.45,0-47.14-2.07-70.28.63-19.47,2.28-40.17,6.71-57,16.12-43.15,24.09-58.3,64.09-57.34,112.37,1.1,55.07.17,55.52,55.34,66.59,71.49,14.36,143.7,14.83,215.73,6.28,28.18-3.34,55.73-12.33,83.41-19.37,10.29-2.61,15-9.35,14.12-21.18-1.28-16.66,0-33.49-.5-50.23-1.62-53.71-40.08-100.67-93.3-108.17C1043.12,1017.94,1012.55,1021.35,982.47,1021.35Zm91.59-139.75a92,92,0,1,0-184-.48c0,50.22,40.86,91.42,91,91.88C1032,973.46,1073.9,932.22,1074.06,881.6Z"/></svg>